G04 #@! TF.FileFunction,Paste,Bot*
%FSLAX46Y46*%
G04 Gerber Fmt 4.6, Leading zero omitted, Abs format (unit mm)*
G04 Created by KiCad (PCBNEW 4.0.4-stable) date 04/08/17 13:14:59*
%MOMM*%
%LPD*%
G01*
G04 APERTURE LIST*
%ADD10C,0.100000*%
%ADD11R,1.000000X1.250000*%
%ADD12R,1.250000X1.000000*%
%ADD13R,1.524000X2.032000*%
%ADD14R,0.590000X0.450000*%
%ADD15R,0.450000X0.590000*%
%ADD16R,0.900000X0.800000*%
%ADD17R,1.300000X0.700000*%
%ADD18R,0.700000X1.300000*%
%ADD19R,0.508000X1.143000*%
G04 APERTURE END LIST*
D10*
D11*
X133080000Y-101346000D03*
X131080000Y-101346000D03*
X114792000Y-106680000D03*
X112792000Y-106680000D03*
X117078000Y-99314000D03*
X115078000Y-99314000D03*
X138160000Y-93472000D03*
X136160000Y-93472000D03*
X138160000Y-109220000D03*
X136160000Y-109220000D03*
X129270000Y-96520000D03*
X127270000Y-96520000D03*
X129270000Y-98806000D03*
X127270000Y-98806000D03*
D12*
X128524000Y-112760000D03*
X128524000Y-110760000D03*
D11*
X159274000Y-101346000D03*
X161274000Y-101346000D03*
D13*
X146431000Y-99568000D03*
X149733000Y-99568000D03*
X149733000Y-102870000D03*
X146431000Y-102870000D03*
X164719000Y-90170000D03*
X168021000Y-90170000D03*
X168021000Y-94488000D03*
X164719000Y-94488000D03*
D11*
X127270000Y-89916000D03*
X129270000Y-89916000D03*
X151622000Y-112776000D03*
X149622000Y-112776000D03*
X166608000Y-108966000D03*
X164608000Y-108966000D03*
X115046000Y-112776000D03*
X113046000Y-112776000D03*
D14*
X131279000Y-96520000D03*
X133389000Y-96520000D03*
X131279000Y-107188000D03*
X133389000Y-107188000D03*
D15*
X119126000Y-101307000D03*
X119126000Y-103417000D03*
X121412000Y-101307000D03*
X121412000Y-103417000D03*
D14*
X126023000Y-115316000D03*
X123913000Y-115316000D03*
D15*
X133350000Y-110959000D03*
X133350000Y-113069000D03*
D14*
X118833000Y-116586000D03*
X120943000Y-116586000D03*
X132549000Y-83820000D03*
X134659000Y-83820000D03*
X132549000Y-86106000D03*
X134659000Y-86106000D03*
X145503000Y-83820000D03*
X147613000Y-83820000D03*
X145503000Y-86360000D03*
X147613000Y-86360000D03*
D16*
X169180000Y-108646000D03*
X169180000Y-106746000D03*
X171180000Y-107696000D03*
X123460000Y-84008000D03*
X123460000Y-82108000D03*
X125460000Y-83058000D03*
X136460000Y-84008000D03*
X136460000Y-82108000D03*
X138460000Y-83058000D03*
X149460000Y-84008000D03*
X149460000Y-82108000D03*
X151460000Y-83058000D03*
X162460000Y-84008000D03*
X162460000Y-82108000D03*
X164460000Y-83058000D03*
D17*
X151130000Y-110678000D03*
X151130000Y-108778000D03*
D18*
X114234000Y-83566000D03*
X112334000Y-83566000D03*
X114234000Y-93980000D03*
X112334000Y-93980000D03*
X131130000Y-98806000D03*
X133030000Y-98806000D03*
X114234000Y-81026000D03*
X112334000Y-81026000D03*
X112334000Y-86106000D03*
X114234000Y-86106000D03*
D17*
X112014000Y-96586000D03*
X112014000Y-98486000D03*
D18*
X114234000Y-91440000D03*
X112334000Y-91440000D03*
X117282000Y-104394000D03*
X115382000Y-104394000D03*
X117282000Y-101854000D03*
X115382000Y-101854000D03*
X133030000Y-104648000D03*
X131130000Y-104648000D03*
X138110000Y-95758000D03*
X136210000Y-95758000D03*
X138110000Y-106934000D03*
X136210000Y-106934000D03*
D17*
X152400000Y-120076000D03*
X152400000Y-118176000D03*
X131572000Y-91628000D03*
X131572000Y-89728000D03*
D18*
X129474000Y-104648000D03*
X127574000Y-104648000D03*
X127574000Y-101346000D03*
X129474000Y-101346000D03*
D17*
X126238000Y-118176000D03*
X126238000Y-120076000D03*
X130810000Y-110810000D03*
X130810000Y-112710000D03*
D18*
X141290000Y-107950000D03*
X143190000Y-107950000D03*
X155768000Y-99060000D03*
X157668000Y-99060000D03*
X159324000Y-99060000D03*
X161224000Y-99060000D03*
D17*
X173736000Y-98364000D03*
X173736000Y-100264000D03*
X151384000Y-95946000D03*
X151384000Y-94046000D03*
D18*
X166558000Y-106680000D03*
X164658000Y-106680000D03*
D17*
X162560000Y-115636000D03*
X162560000Y-117536000D03*
D18*
X119700000Y-84074000D03*
X121600000Y-84074000D03*
X158700000Y-84074000D03*
X160600000Y-84074000D03*
X138364000Y-86106000D03*
X136464000Y-86106000D03*
X151364000Y-86106000D03*
X149464000Y-86106000D03*
D17*
X121158000Y-79822000D03*
X121158000Y-81722000D03*
X134158000Y-79822000D03*
X134158000Y-81722000D03*
X147158000Y-79822000D03*
X147158000Y-81722000D03*
X160158000Y-79822000D03*
X160158000Y-81722000D03*
D19*
X154178000Y-106680000D03*
X155448000Y-106680000D03*
X156718000Y-106680000D03*
X157988000Y-106680000D03*
X159258000Y-106680000D03*
X160528000Y-106680000D03*
X161798000Y-106680000D03*
X161798000Y-113030000D03*
X160528000Y-113030000D03*
X157988000Y-113030000D03*
X156718000Y-113030000D03*
X155448000Y-113030000D03*
X154178000Y-113030000D03*
X159258000Y-113030000D03*
X135890000Y-98044000D03*
X137160000Y-98044000D03*
X138430000Y-98044000D03*
X139700000Y-98044000D03*
X140970000Y-98044000D03*
X142240000Y-98044000D03*
X143510000Y-98044000D03*
X143510000Y-104394000D03*
X142240000Y-104394000D03*
X139700000Y-104394000D03*
X138430000Y-104394000D03*
X137160000Y-104394000D03*
X135890000Y-104394000D03*
X140970000Y-104394000D03*
X117348000Y-106680000D03*
X118618000Y-106680000D03*
X119888000Y-106680000D03*
X121158000Y-106680000D03*
X122428000Y-106680000D03*
X123698000Y-106680000D03*
X124968000Y-106680000D03*
X124968000Y-113030000D03*
X123698000Y-113030000D03*
X121158000Y-113030000D03*
X119888000Y-113030000D03*
X118618000Y-113030000D03*
X117348000Y-113030000D03*
X122428000Y-113030000D03*
X124968000Y-96266000D03*
X123698000Y-96266000D03*
X122428000Y-96266000D03*
X121158000Y-96266000D03*
X119888000Y-96266000D03*
X118618000Y-96266000D03*
X117348000Y-96266000D03*
X117348000Y-89916000D03*
X118618000Y-89916000D03*
X121158000Y-89916000D03*
X122428000Y-89916000D03*
X123698000Y-89916000D03*
X124968000Y-89916000D03*
X119888000Y-89916000D03*
X154178000Y-89662000D03*
X155448000Y-89662000D03*
X156718000Y-89662000D03*
X157988000Y-89662000D03*
X159258000Y-89662000D03*
X160528000Y-89662000D03*
X161798000Y-89662000D03*
X161798000Y-96012000D03*
X160528000Y-96012000D03*
X157988000Y-96012000D03*
X156718000Y-96012000D03*
X155448000Y-96012000D03*
X154178000Y-96012000D03*
X159258000Y-96012000D03*
M02*
