<?xml version="1.0" standalone="no"?>
 <!DOCTYPE svg PUBLIC "-//W3C//DTD SVG 1.1//EN" 
 "http://www.w3.org/Graphics/SVG/1.1/DTD/svg11.dtd"> 
<svg xmlns="http://www.w3.org/2000/svg" version="1.1" 
    width="29.7002cm" height="21.0007cm" viewBox="0 0 116930 82680 ">
<title>SVG Picture created as adsr-envelope-generator2-B.Paste.svg date 2017/04/08 13:15:06 </title>
  <desc>Picture generated by PCBNEW </desc>
<g style="fill:#000000; fill-opacity:1;stroke:#000000; stroke-opacity:1;
stroke-linecap:round; stroke-linejoin:round; "
 transform="translate(0 0) scale(1 1)">
</g>
<g style="fill:#000000; fill-opacity:0.0; 
stroke:#000000; stroke-width:-0.000393701; stroke-opacity:1; 
stroke-linecap:round; stroke-linejoin:round;">
</g>
<g style="fill:#000000; fill-opacity:0.0; 
stroke:#000000; stroke-width:0; stroke-opacity:1; 
stroke-linecap:round; stroke-linejoin:round;">
</g>
<g style="fill:#000000; fill-opacity:1.0; 
stroke:#000000; stroke-width:0; stroke-opacity:1; 
stroke-linecap:round; stroke-linejoin:round;">
<polyline style="fill-rule:evenodd;"
points="52590,39653
52590,40146
52196,40146
52196,39653
52590,39653
" /> 
<polyline style="fill-rule:evenodd;"
points="51803,39653
51803,40146
51409,40146
51409,39653
51803,39653
" /> 
<polyline style="fill-rule:evenodd;"
points="45390,41753
45390,42246
44996,42246
44996,41753
45390,41753
" /> 
<polyline style="fill-rule:evenodd;"
points="44603,41753
44603,42246
44209,42246
44209,41753
44603,41753
" /> 
<polyline style="fill-rule:evenodd;"
points="46290,38853
46290,39346
45896,39346
45896,38853
46290,38853
" /> 
<polyline style="fill-rule:evenodd;"
points="45503,38853
45503,39346
45109,39346
45109,38853
45503,38853
" /> 
<polyline style="fill-rule:evenodd;"
points="54590,36553
54590,37046
54196,37046
54196,36553
54590,36553
" /> 
<polyline style="fill-rule:evenodd;"
points="53803,36553
53803,37046
53409,37046
53409,36553
53803,36553
" /> 
<polyline style="fill-rule:evenodd;"
points="54590,42753
54590,43246
54196,43246
54196,42753
54590,42753
" /> 
<polyline style="fill-rule:evenodd;"
points="53803,42753
53803,43246
53409,43246
53409,42753
53803,42753
" /> 
<polyline style="fill-rule:evenodd;"
points="51090,37753
51090,38246
50696,38246
50696,37753
51090,37753
" /> 
<polyline style="fill-rule:evenodd;"
points="50303,37753
50303,38246
49909,38246
49909,37753
50303,37753
" /> 
<polyline style="fill-rule:evenodd;"
points="51090,38653
51090,39146
50696,39146
50696,38653
51090,38653
" /> 
<polyline style="fill-rule:evenodd;"
points="50303,38653
50303,39146
49909,39146
49909,38653
50303,38653
" /> 
<polyline style="fill-rule:evenodd;"
points="50846,44590
50353,44590
50353,44196
50846,44196
50846,44590
" /> 
<polyline style="fill-rule:evenodd;"
points="50846,43803
50353,43803
50353,43409
50846,43409
50846,43803
" /> 
<polyline style="fill-rule:evenodd;"
points="62509,40146
62509,39653
62903,39653
62903,40146
62509,40146
" /> 
<polyline style="fill-rule:evenodd;"
points="63296,40146
63296,39653
63690,39653
63690,40146
63296,40146
" /> 
<polyline style="fill-rule:evenodd;"
points="57350,39600
57350,38800
57950,38800
57950,39600
57350,39600
" /> 
<polyline style="fill-rule:evenodd;"
points="58650,39600
58650,38800
59250,38800
59250,39600
58650,39600
" /> 
<polyline style="fill-rule:evenodd;"
points="59250,40100
59250,40900
58650,40900
58650,40100
59250,40100
" /> 
<polyline style="fill-rule:evenodd;"
points="57950,40100
57950,40900
57350,40900
57350,40100
57950,40100
" /> 
<polyline style="fill-rule:evenodd;"
points="64550,35900
64550,35100
65150,35100
65150,35900
64550,35900
" /> 
<polyline style="fill-rule:evenodd;"
points="65850,35900
65850,35100
66450,35100
66450,35900
65850,35900
" /> 
<polyline style="fill-rule:evenodd;"
points="66450,36800
66450,37600
65850,37600
65850,36800
66450,36800
" /> 
<polyline style="fill-rule:evenodd;"
points="65150,36800
65150,37600
64550,37600
64550,36800
65150,36800
" /> 
<polyline style="fill-rule:evenodd;"
points="49909,35646
49909,35153
50303,35153
50303,35646
49909,35646
" /> 
<polyline style="fill-rule:evenodd;"
points="50696,35646
50696,35153
51090,35153
51090,35646
50696,35646
" /> 
<polyline style="fill-rule:evenodd;"
points="59890,44153
59890,44646
59496,44646
59496,44153
59890,44153
" /> 
<polyline style="fill-rule:evenodd;"
points="59103,44153
59103,44646
58709,44646
58709,44153
59103,44153
" /> 
<polyline style="fill-rule:evenodd;"
points="65790,42653
65790,43146
65396,43146
65396,42653
65790,42653
" /> 
<polyline style="fill-rule:evenodd;"
points="65003,42653
65003,43146
64609,43146
64609,42653
65003,42653
" /> 
<polyline style="fill-rule:evenodd;"
points="45490,44153
45490,44646
45096,44646
45096,44153
45490,44153
" /> 
<polyline style="fill-rule:evenodd;"
points="44703,44153
44703,44646
44309,44646
44309,44153
44703,44153
" /> 
<polyline style="fill-rule:evenodd;"
points="51568,38088
51568,37911
51800,37911
51800,38088
51568,38088
" /> 
<polyline style="fill-rule:evenodd;"
points="52399,38088
52399,37911
52631,37911
52631,38088
52399,38088
" /> 
<polyline style="fill-rule:evenodd;"
points="51568,42288
51568,42111
51800,42111
51800,42288
51568,42288
" /> 
<polyline style="fill-rule:evenodd;"
points="52399,42288
52399,42111
52631,42111
52631,42288
52399,42288
" /> 
<polyline style="fill-rule:evenodd;"
points="46811,39768
46988,39768
46988,40000
46811,40000
46811,39768
" /> 
<polyline style="fill-rule:evenodd;"
points="46811,40599
46988,40599
46988,40831
46811,40831
46811,40599
" /> 
<polyline style="fill-rule:evenodd;"
points="47711,39768
47888,39768
47888,40000
47711,40000
47711,39768
" /> 
<polyline style="fill-rule:evenodd;"
points="47711,40599
47888,40599
47888,40831
47711,40831
47711,40599
" /> 
<polyline style="fill-rule:evenodd;"
points="49731,45311
49731,45488
49499,45488
49499,45311
49731,45311
" /> 
<polyline style="fill-rule:evenodd;"
points="48900,45311
48900,45488
48668,45488
48668,45311
48900,45311
" /> 
<polyline style="fill-rule:evenodd;"
points="52411,43568
52588,43568
52588,43800
52411,43800
52411,43568
" /> 
<polyline style="fill-rule:evenodd;"
points="52411,44399
52588,44399
52588,44631
52411,44631
52411,44399
" /> 
<polyline style="fill-rule:evenodd;"
points="46668,45988
46668,45811
46900,45811
46900,45988
46668,45988
" /> 
<polyline style="fill-rule:evenodd;"
points="47499,45988
47499,45811
47731,45811
47731,45988
47499,45988
" /> 
<polyline style="fill-rule:evenodd;"
points="52068,33088
52068,32911
52300,32911
52300,33088
52068,33088
" /> 
<polyline style="fill-rule:evenodd;"
points="52899,33088
52899,32911
53131,32911
53131,33088
52899,33088
" /> 
<polyline style="fill-rule:evenodd;"
points="52068,33988
52068,33811
52300,33811
52300,33988
52068,33988
" /> 
<polyline style="fill-rule:evenodd;"
points="52899,33988
52899,33811
53131,33811
53131,33988
52899,33988
" /> 
<polyline style="fill-rule:evenodd;"
points="57168,33088
57168,32911
57400,32911
57400,33088
57168,33088
" /> 
<polyline style="fill-rule:evenodd;"
points="57999,33088
57999,32911
58231,32911
58231,33088
57999,33088
" /> 
<polyline style="fill-rule:evenodd;"
points="57168,34088
57168,33911
57400,33911
57400,34088
57168,34088
" /> 
<polyline style="fill-rule:evenodd;"
points="57999,34088
57999,33911
58231,33911
58231,34088
57999,34088
" /> 
<polyline style="fill-rule:evenodd;"
points="66429,42931
66429,42616
66783,42616
66783,42931
66429,42931
" /> 
<polyline style="fill-rule:evenodd;"
points="66429,42183
66429,41868
66783,41868
66783,42183
66429,42183
" /> 
<polyline style="fill-rule:evenodd;"
points="67216,42557
67216,42242
67570,42242
67570,42557
67216,42557
" /> 
<polyline style="fill-rule:evenodd;"
points="48429,33231
48429,32916
48783,32916
48783,33231
48429,33231
" /> 
<polyline style="fill-rule:evenodd;"
points="48429,32483
48429,32168
48783,32168
48783,32483
48429,32483
" /> 
<polyline style="fill-rule:evenodd;"
points="49216,32857
49216,32542
49570,32542
49570,32857
49216,32857
" /> 
<polyline style="fill-rule:evenodd;"
points="53547,33231
53547,32916
53901,32916
53901,33231
53547,33231
" /> 
<polyline style="fill-rule:evenodd;"
points="53547,32483
53547,32168
53901,32168
53901,32483
53547,32483
" /> 
<polyline style="fill-rule:evenodd;"
points="54334,32857
54334,32542
54688,32542
54688,32857
54334,32857
" /> 
<polyline style="fill-rule:evenodd;"
points="58665,33231
58665,32916
59019,32916
59019,33231
58665,33231
" /> 
<polyline style="fill-rule:evenodd;"
points="58665,32483
58665,32168
59019,32168
59019,32483
58665,32483
" /> 
<polyline style="fill-rule:evenodd;"
points="59452,32857
59452,32542
59807,32542
59807,32857
59452,32857
" /> 
<polyline style="fill-rule:evenodd;"
points="63783,33231
63783,32916
64137,32916
64137,33231
63783,33231
" /> 
<polyline style="fill-rule:evenodd;"
points="63783,32483
63783,32168
64137,32168
64137,32483
63783,32483
" /> 
<polyline style="fill-rule:evenodd;"
points="64570,32857
64570,32542
64925,32542
64925,32857
64570,32857
" /> 
<polyline style="fill-rule:evenodd;"
points="59755,43711
59244,43711
59244,43436
59755,43436
59755,43711
" /> 
<polyline style="fill-rule:evenodd;"
points="59755,42963
59244,42963
59244,42688
59755,42688
59755,42963
" /> 
<polyline style="fill-rule:evenodd;"
points="45111,32644
45111,33155
44836,33155
44836,32644
45111,32644
" /> 
<polyline style="fill-rule:evenodd;"
points="44363,32644
44363,33155
44088,33155
44088,32644
44363,32644
" /> 
<polyline style="fill-rule:evenodd;"
points="45111,36744
45111,37255
44836,37255
44836,36744
45111,36744
" /> 
<polyline style="fill-rule:evenodd;"
points="44363,36744
44363,37255
44088,37255
44088,36744
44363,36744
" /> 
<polyline style="fill-rule:evenodd;"
points="51488,39155
51488,38644
51763,38644
51763,39155
51488,39155
" /> 
<polyline style="fill-rule:evenodd;"
points="52236,39155
52236,38644
52511,38644
52511,39155
52236,39155
" /> 
<polyline style="fill-rule:evenodd;"
points="45111,31644
45111,32155
44836,32155
44836,31644
45111,31644
" /> 
<polyline style="fill-rule:evenodd;"
points="44363,31644
44363,32155
44088,32155
44088,31644
44363,31644
" /> 
<polyline style="fill-rule:evenodd;"
points="44088,34155
44088,33644
44363,33644
44363,34155
44088,34155
" /> 
<polyline style="fill-rule:evenodd;"
points="44836,34155
44836,33644
45111,33644
45111,34155
44836,34155
" /> 
<polyline style="fill-rule:evenodd;"
points="43844,37888
44355,37888
44355,38163
43844,38163
43844,37888
" /> 
<polyline style="fill-rule:evenodd;"
points="43844,38636
44355,38636
44355,38911
43844,38911
43844,38636
" /> 
<polyline style="fill-rule:evenodd;"
points="45111,35744
45111,36255
44836,36255
44836,35744
45111,35744
" /> 
<polyline style="fill-rule:evenodd;"
points="44363,35744
44363,36255
44088,36255
44088,35744
44363,35744
" /> 
<polyline style="fill-rule:evenodd;"
points="46311,40844
46311,41355
46036,41355
46036,40844
46311,40844
" /> 
<polyline style="fill-rule:evenodd;"
points="45563,40844
45563,41355
45288,41355
45288,40844
45563,40844
" /> 
<polyline style="fill-rule:evenodd;"
points="46311,39844
46311,40355
46036,40355
46036,39844
46311,39844
" /> 
<polyline style="fill-rule:evenodd;"
points="45563,39844
45563,40355
45288,40355
45288,39844
45563,39844
" /> 
<polyline style="fill-rule:evenodd;"
points="52511,40944
52511,41455
52236,41455
52236,40944
52511,40944
" /> 
<polyline style="fill-rule:evenodd;"
points="51763,40944
51763,41455
51488,41455
51488,40944
51763,40944
" /> 
<polyline style="fill-rule:evenodd;"
points="54511,37444
54511,37955
54236,37955
54236,37444
54511,37444
" /> 
<polyline style="fill-rule:evenodd;"
points="53763,37444
53763,37955
53488,37955
53488,37444
53763,37444
" /> 
<polyline style="fill-rule:evenodd;"
points="54511,41844
54511,42355
54236,42355
54236,41844
54511,41844
" /> 
<polyline style="fill-rule:evenodd;"
points="53763,41844
53763,42355
53488,42355
53488,41844
53763,41844
" /> 
<polyline style="fill-rule:evenodd;"
points="60255,47411
59744,47411
59744,47136
60255,47136
60255,47411
" /> 
<polyline style="fill-rule:evenodd;"
points="60255,46663
59744,46663
59744,46388
60255,46388
60255,46663
" /> 
<polyline style="fill-rule:evenodd;"
points="52055,36211
51544,36211
51544,35936
52055,35936
52055,36211
" /> 
<polyline style="fill-rule:evenodd;"
points="52055,35463
51544,35463
51544,35188
52055,35188
52055,35463
" /> 
<polyline style="fill-rule:evenodd;"
points="51111,40944
51111,41455
50836,41455
50836,40944
51111,40944
" /> 
<polyline style="fill-rule:evenodd;"
points="50363,40944
50363,41455
50088,41455
50088,40944
50363,40944
" /> 
<polyline style="fill-rule:evenodd;"
points="50088,40155
50088,39644
50363,39644
50363,40155
50088,40155
" /> 
<polyline style="fill-rule:evenodd;"
points="50836,40155
50836,39644
51111,39644
51111,40155
50836,40155
" /> 
<polyline style="fill-rule:evenodd;"
points="49444,46388
49955,46388
49955,46663
49444,46663
49444,46388
" /> 
<polyline style="fill-rule:evenodd;"
points="49444,47136
49955,47136
49955,47411
49444,47411
49444,47136
" /> 
<polyline style="fill-rule:evenodd;"
points="51244,43488
51755,43488
51755,43763
51244,43763
51244,43488
" /> 
<polyline style="fill-rule:evenodd;"
points="51244,44236
51755,44236
51755,44511
51244,44511
51244,44236
" /> 
<polyline style="fill-rule:evenodd;"
points="55488,42755
55488,42244
55763,42244
55763,42755
55488,42755
" /> 
<polyline style="fill-rule:evenodd;"
points="56236,42755
56236,42244
56511,42244
56511,42755
56236,42755
" /> 
<polyline style="fill-rule:evenodd;"
points="61188,39255
61188,38744
61463,38744
61463,39255
61188,39255
" /> 
<polyline style="fill-rule:evenodd;"
points="61936,39255
61936,38744
62211,38744
62211,39255
61936,39255
" /> 
<polyline style="fill-rule:evenodd;"
points="62588,39255
62588,38744
62863,38744
62863,39255
62588,39255
" /> 
<polyline style="fill-rule:evenodd;"
points="63336,39255
63336,38744
63611,38744
63611,39255
63336,39255
" /> 
<polyline style="fill-rule:evenodd;"
points="68144,38588
68655,38588
68655,38863
68144,38863
68144,38588
" /> 
<polyline style="fill-rule:evenodd;"
points="68144,39336
68655,39336
68655,39611
68144,39611
68144,39336
" /> 
<polyline style="fill-rule:evenodd;"
points="59855,37911
59344,37911
59344,37636
59855,37636
59855,37911
" /> 
<polyline style="fill-rule:evenodd;"
points="59855,37163
59344,37163
59344,36888
59855,36888
59855,37163
" /> 
<polyline style="fill-rule:evenodd;"
points="65711,41744
65711,42255
65436,42255
65436,41744
65711,41744
" /> 
<polyline style="fill-rule:evenodd;"
points="64963,41744
64963,42255
64688,42255
64688,41744
64963,41744
" /> 
<polyline style="fill-rule:evenodd;"
points="63744,45388
64255,45388
64255,45663
63744,45663
63744,45388
" /> 
<polyline style="fill-rule:evenodd;"
points="63744,46136
64255,46136
64255,46411
63744,46411
63744,46136
" /> 
<polyline style="fill-rule:evenodd;"
points="46988,33355
46988,32844
47263,32844
47263,33355
46988,33355
" /> 
<polyline style="fill-rule:evenodd;"
points="47736,33355
47736,32844
48011,32844
48011,33355
47736,33355
" /> 
<polyline style="fill-rule:evenodd;"
points="62342,33355
62342,32844
62618,32844
62618,33355
62342,33355
" /> 
<polyline style="fill-rule:evenodd;"
points="63090,33355
63090,32844
63366,32844
63366,33355
63090,33355
" /> 
<polyline style="fill-rule:evenodd;"
points="54611,33644
54611,34155
54336,34155
54336,33644
54611,33644
" /> 
<polyline style="fill-rule:evenodd;"
points="53863,33644
53863,34155
53588,34155
53588,33644
53863,33644
" /> 
<polyline style="fill-rule:evenodd;"
points="59729,33644
59729,34155
59454,34155
59454,33644
59729,33644
" /> 
<polyline style="fill-rule:evenodd;"
points="58981,33644
58981,34155
58706,34155
58706,33644
58981,33644
" /> 
<polyline style="fill-rule:evenodd;"
points="47444,31288
47955,31288
47955,31563
47444,31563
47444,31288
" /> 
<polyline style="fill-rule:evenodd;"
points="47444,32036
47955,32036
47955,32311
47444,32311
47444,32036
" /> 
<polyline style="fill-rule:evenodd;"
points="52562,31288
53074,31288
53074,31563
52562,31563
52562,31288
" /> 
<polyline style="fill-rule:evenodd;"
points="52562,32036
53074,32036
53074,32311
52562,32311
52562,32036
" /> 
<polyline style="fill-rule:evenodd;"
points="57680,31288
58192,31288
58192,31563
57680,31563
57680,31288
" /> 
<polyline style="fill-rule:evenodd;"
points="57680,32036
58192,32036
58192,32311
57680,32311
57680,32036
" /> 
<polyline style="fill-rule:evenodd;"
points="62798,31288
63310,31288
63310,31563
62798,31563
62798,31288
" /> 
<polyline style="fill-rule:evenodd;"
points="62798,32036
63310,32036
63310,32311
62798,32311
62798,32036
" /> 
<polyline style="fill-rule:evenodd;"
points="60600,42225
60600,41775
60800,41775
60800,42225
60600,42225
" /> 
<polyline style="fill-rule:evenodd;"
points="61100,42225
61100,41775
61300,41775
61300,42225
61100,42225
" /> 
<polyline style="fill-rule:evenodd;"
points="61600,42225
61600,41775
61800,41775
61800,42225
61600,42225
" /> 
<polyline style="fill-rule:evenodd;"
points="62100,42225
62100,41775
62300,41775
62300,42225
62100,42225
" /> 
<polyline style="fill-rule:evenodd;"
points="62600,42225
62600,41775
62800,41775
62800,42225
62600,42225
" /> 
<polyline style="fill-rule:evenodd;"
points="63100,42225
63100,41775
63300,41775
63300,42225
63100,42225
" /> 
<polyline style="fill-rule:evenodd;"
points="63600,42225
63600,41775
63800,41775
63800,42225
63600,42225
" /> 
<polyline style="fill-rule:evenodd;"
points="63600,44725
63600,44275
63800,44275
63800,44725
63600,44725
" /> 
<polyline style="fill-rule:evenodd;"
points="63100,44725
63100,44275
63300,44275
63300,44725
63100,44725
" /> 
<polyline style="fill-rule:evenodd;"
points="62100,44725
62100,44275
62300,44275
62300,44725
62100,44725
" /> 
<polyline style="fill-rule:evenodd;"
points="61600,44725
61600,44275
61800,44275
61800,44725
61600,44725
" /> 
<polyline style="fill-rule:evenodd;"
points="61100,44725
61100,44275
61300,44275
61300,44725
61100,44725
" /> 
<polyline style="fill-rule:evenodd;"
points="60600,44725
60600,44275
60800,44275
60800,44725
60600,44725
" /> 
<polyline style="fill-rule:evenodd;"
points="62600,44725
62600,44275
62800,44275
62800,44725
62600,44725
" /> 
<polyline style="fill-rule:evenodd;"
points="53400,38825
53400,38375
53600,38375
53600,38825
53400,38825
" /> 
<polyline style="fill-rule:evenodd;"
points="53900,38825
53900,38375
54100,38375
54100,38825
53900,38825
" /> 
<polyline style="fill-rule:evenodd;"
points="54400,38825
54400,38375
54600,38375
54600,38825
54400,38825
" /> 
<polyline style="fill-rule:evenodd;"
points="54900,38825
54900,38375
55100,38375
55100,38825
54900,38825
" /> 
<polyline style="fill-rule:evenodd;"
points="55400,38825
55400,38375
55600,38375
55600,38825
55400,38825
" /> 
<polyline style="fill-rule:evenodd;"
points="55900,38825
55900,38375
56100,38375
56100,38825
55900,38825
" /> 
<polyline style="fill-rule:evenodd;"
points="56400,38825
56400,38375
56600,38375
56600,38825
56400,38825
" /> 
<polyline style="fill-rule:evenodd;"
points="56400,41325
56400,40875
56600,40875
56600,41325
56400,41325
" /> 
<polyline style="fill-rule:evenodd;"
points="55900,41325
55900,40875
56100,40875
56100,41325
55900,41325
" /> 
<polyline style="fill-rule:evenodd;"
points="54900,41325
54900,40875
55100,40875
55100,41325
54900,41325
" /> 
<polyline style="fill-rule:evenodd;"
points="54400,41325
54400,40875
54600,40875
54600,41325
54400,41325
" /> 
<polyline style="fill-rule:evenodd;"
points="53900,41325
53900,40875
54100,40875
54100,41325
53900,41325
" /> 
<polyline style="fill-rule:evenodd;"
points="53400,41325
53400,40875
53600,40875
53600,41325
53400,41325
" /> 
<polyline style="fill-rule:evenodd;"
points="55400,41325
55400,40875
55600,40875
55600,41325
55400,41325
" /> 
<polyline style="fill-rule:evenodd;"
points="46100,42225
46100,41775
46300,41775
46300,42225
46100,42225
" /> 
<polyline style="fill-rule:evenodd;"
points="46600,42225
46600,41775
46800,41775
46800,42225
46600,42225
" /> 
<polyline style="fill-rule:evenodd;"
points="47100,42225
47100,41775
47300,41775
47300,42225
47100,42225
" /> 
<polyline style="fill-rule:evenodd;"
points="47600,42225
47600,41775
47800,41775
47800,42225
47600,42225
" /> 
<polyline style="fill-rule:evenodd;"
points="48100,42225
48100,41775
48300,41775
48300,42225
48100,42225
" /> 
<polyline style="fill-rule:evenodd;"
points="48600,42225
48600,41775
48800,41775
48800,42225
48600,42225
" /> 
<polyline style="fill-rule:evenodd;"
points="49100,42225
49100,41775
49300,41775
49300,42225
49100,42225
" /> 
<polyline style="fill-rule:evenodd;"
points="49100,44725
49100,44275
49300,44275
49300,44725
49100,44725
" /> 
<polyline style="fill-rule:evenodd;"
points="48600,44725
48600,44275
48800,44275
48800,44725
48600,44725
" /> 
<polyline style="fill-rule:evenodd;"
points="47600,44725
47600,44275
47800,44275
47800,44725
47600,44725
" /> 
<polyline style="fill-rule:evenodd;"
points="47100,44725
47100,44275
47300,44275
47300,44725
47100,44725
" /> 
<polyline style="fill-rule:evenodd;"
points="46600,44725
46600,44275
46800,44275
46800,44725
46600,44725
" /> 
<polyline style="fill-rule:evenodd;"
points="46100,44725
46100,44275
46300,44275
46300,44725
46100,44725
" /> 
<polyline style="fill-rule:evenodd;"
points="48100,44725
48100,44275
48300,44275
48300,44725
48100,44725
" /> 
<polyline style="fill-rule:evenodd;"
points="49300,37675
49300,38125
49100,38125
49100,37675
49300,37675
" /> 
<polyline style="fill-rule:evenodd;"
points="48800,37675
48800,38125
48600,38125
48600,37675
48800,37675
" /> 
<polyline style="fill-rule:evenodd;"
points="48300,37675
48300,38125
48100,38125
48100,37675
48300,37675
" /> 
<polyline style="fill-rule:evenodd;"
points="47800,37675
47800,38125
47600,38125
47600,37675
47800,37675
" /> 
<polyline style="fill-rule:evenodd;"
points="47300,37675
47300,38125
47100,38125
47100,37675
47300,37675
" /> 
<polyline style="fill-rule:evenodd;"
points="46800,37675
46800,38125
46600,38125
46600,37675
46800,37675
" /> 
<polyline style="fill-rule:evenodd;"
points="46300,37675
46300,38125
46100,38125
46100,37675
46300,37675
" /> 
<polyline style="fill-rule:evenodd;"
points="46300,35175
46300,35625
46100,35625
46100,35175
46300,35175
" /> 
<polyline style="fill-rule:evenodd;"
points="46800,35175
46800,35625
46600,35625
46600,35175
46800,35175
" /> 
<polyline style="fill-rule:evenodd;"
points="47800,35175
47800,35625
47600,35625
47600,35175
47800,35175
" /> 
<polyline style="fill-rule:evenodd;"
points="48300,35175
48300,35625
48100,35625
48100,35175
48300,35175
" /> 
<polyline style="fill-rule:evenodd;"
points="48800,35175
48800,35625
48600,35625
48600,35175
48800,35175
" /> 
<polyline style="fill-rule:evenodd;"
points="49300,35175
49300,35625
49100,35625
49100,35175
49300,35175
" /> 
<polyline style="fill-rule:evenodd;"
points="47300,35175
47300,35625
47100,35625
47100,35175
47300,35175
" /> 
<polyline style="fill-rule:evenodd;"
points="60600,35525
60600,35075
60800,35075
60800,35525
60600,35525
" /> 
<polyline style="fill-rule:evenodd;"
points="61100,35525
61100,35075
61300,35075
61300,35525
61100,35525
" /> 
<polyline style="fill-rule:evenodd;"
points="61600,35525
61600,35075
61800,35075
61800,35525
61600,35525
" /> 
<polyline style="fill-rule:evenodd;"
points="62100,35525
62100,35075
62300,35075
62300,35525
62100,35525
" /> 
<polyline style="fill-rule:evenodd;"
points="62600,35525
62600,35075
62800,35075
62800,35525
62600,35525
" /> 
<polyline style="fill-rule:evenodd;"
points="63100,35525
63100,35075
63300,35075
63300,35525
63100,35525
" /> 
<polyline style="fill-rule:evenodd;"
points="63600,35525
63600,35075
63800,35075
63800,35525
63600,35525
" /> 
<polyline style="fill-rule:evenodd;"
points="63600,38025
63600,37575
63800,37575
63800,38025
63600,38025
" /> 
<polyline style="fill-rule:evenodd;"
points="63100,38025
63100,37575
63300,37575
63300,38025
63100,38025
" /> 
<polyline style="fill-rule:evenodd;"
points="62100,38025
62100,37575
62300,37575
62300,38025
62100,38025
" /> 
<polyline style="fill-rule:evenodd;"
points="61600,38025
61600,37575
61800,37575
61800,38025
61600,38025
" /> 
<polyline style="fill-rule:evenodd;"
points="61100,38025
61100,37575
61300,37575
61300,38025
61100,38025
" /> 
<polyline style="fill-rule:evenodd;"
points="60600,38025
60600,37575
60800,37575
60800,38025
60600,38025
" /> 
<polyline style="fill-rule:evenodd;"
points="62600,38025
62600,37575
62800,37575
62800,38025
62600,38025
" /> 
</g> 
</svg>
