<?xml version="1.0" encoding="UTF-8" standalone="no"?>
<!-- Created with Inkscape (http://www.inkscape.org/) -->

<svg
   xmlns:dc="http://purl.org/dc/elements/1.1/"
   xmlns:cc="http://creativecommons.org/ns#"
   xmlns:rdf="http://www.w3.org/1999/02/22-rdf-syntax-ns#"
   xmlns:svg="http://www.w3.org/2000/svg"
   xmlns="http://www.w3.org/2000/svg"
   xmlns:sodipodi="http://sodipodi.sourceforge.net/DTD/sodipodi-0.dtd"
   xmlns:inkscape="http://www.inkscape.org/namespaces/inkscape"
   width="42.5mm"
   height="550mm"
   viewBox="0 0 42.499983 550"
   id="svg2"
   version="1.1"
   inkscape:version="0.91 r13725"
   sodipodi:docname="power-panel-face-mm-ponoko.svg">
  <defs
     id="defs4" />
  <sodipodi:namedview
     id="base"
     pagecolor="#ffffff"
     bordercolor="#666666"
     borderopacity="1.0"
     inkscape:pageopacity="0.0"
     inkscape:pageshadow="2"
     inkscape:zoom="1.4142136"
     inkscape:cx="127.68034"
     inkscape:cy="186.85152"
     inkscape:document-units="mm"
     inkscape:current-layer="layer1"
     showgrid="false"
     inkscape:window-width="1920"
     inkscape:window-height="1027"
     inkscape:window-x="-8"
     inkscape:window-y="22"
     inkscape:window-maximized="1"
     units="mm" />
  <metadata
     id="metadata7">
    <rdf:RDF>
      <cc:Work
         rdf:about="">
        <dc:format>image/svg+xml</dc:format>
        <dc:type
           rdf:resource="http://purl.org/dc/dcmitype/StillImage" />
        <dc:title></dc:title>
      </cc:Work>
    </rdf:RDF>
  </metadata>
  <g
     inkscape:label="Layer 1"
     inkscape:groupmode="layer"
     id="layer1"
     transform="translate(0,-2.4029589e-5)">
    <circle
       style="opacity:1;fill:none;fill-opacity:1;stroke:#0000ff;stroke-width:0.01;stroke-linejoin:round;stroke-miterlimit:4;stroke-dasharray:none;stroke-opacity:1"
       id="path4144"
       cx="10.650266"
       cy="537.5"
       r="1.7450001" />
    <circle
       r="1.7450001"
       cy="537.5"
       cx="31.850267"
       id="circle4146"
       style="opacity:1;fill:none;fill-opacity:1;stroke:#0000ff;stroke-width:0.01;stroke-linejoin:round;stroke-miterlimit:4;stroke-dasharray:none;stroke-opacity:1" />
    <circle
       style="opacity:1;fill:none;fill-opacity:1;stroke:#0000ff;stroke-width:0.01;stroke-linejoin:round;stroke-miterlimit:4;stroke-dasharray:none;stroke-opacity:1"
       id="path4150"
       cx="8.7499914"
       cy="512.5"
       r="3.7450001" />
    <circle
       r="3.7450001"
       cy="512.5"
       cx="21.249992"
       id="circle4152"
       style="opacity:1;fill:none;fill-opacity:1;stroke:#0000ff;stroke-width:0.01;stroke-linejoin:round;stroke-miterlimit:4;stroke-dasharray:none;stroke-opacity:1" />
    <circle
       style="opacity:1;fill:none;fill-opacity:1;stroke:#0000ff;stroke-width:0.01;stroke-linejoin:round;stroke-miterlimit:4;stroke-dasharray:none;stroke-opacity:1"
       id="circle4154"
       cx="33.749992"
       cy="512.5"
       r="3.7450001" />
    <circle
       r="3.7450001"
       cy="487.5"
       cx="8.7499914"
       id="circle4156"
       style="opacity:1;fill:none;fill-opacity:1;stroke:#0000ff;stroke-width:0.01;stroke-linejoin:round;stroke-miterlimit:4;stroke-dasharray:none;stroke-opacity:1" />
    <circle
       style="opacity:1;fill:none;fill-opacity:1;stroke:#0000ff;stroke-width:0.01;stroke-linejoin:round;stroke-miterlimit:4;stroke-dasharray:none;stroke-opacity:1"
       id="circle4158"
       cx="21.249992"
       cy="487.5"
       r="3.7450001" />
    <circle
       r="3.7450001"
       cy="487.50003"
       cx="33.749992"
       id="circle4160"
       style="opacity:1;fill:none;fill-opacity:1;stroke:#0000ff;stroke-width:0.01;stroke-linejoin:round;stroke-miterlimit:4;stroke-dasharray:none;stroke-opacity:1" />
    <circle
       r="3.7450001"
       cy="437.50003"
       cx="8.7499914"
       id="circle4162"
       style="opacity:1;fill:none;fill-opacity:1;stroke:#0000ff;stroke-width:0.01;stroke-linejoin:round;stroke-miterlimit:4;stroke-dasharray:none;stroke-opacity:1" />
    <circle
       style="opacity:1;fill:none;fill-opacity:1;stroke:#0000ff;stroke-width:0.01;stroke-linejoin:round;stroke-miterlimit:4;stroke-dasharray:none;stroke-opacity:1"
       id="circle4164"
       cx="21.249992"
       cy="437.50003"
       r="3.7450001" />
    <circle
       r="3.7450001"
       cy="437.50003"
       cx="33.749992"
       id="circle4166"
       style="opacity:1;fill:none;fill-opacity:1;stroke:#0000ff;stroke-width:0.01;stroke-linejoin:round;stroke-miterlimit:4;stroke-dasharray:none;stroke-opacity:1" />
    <circle
       style="opacity:1;fill:none;fill-opacity:1;stroke:#0000ff;stroke-width:0.01;stroke-linejoin:round;stroke-miterlimit:4;stroke-dasharray:none;stroke-opacity:1"
       id="circle4168"
       cx="8.7499914"
       cy="412.50003"
       r="3.7450001" />
    <circle
       r="3.7450001"
       cy="412.50003"
       cx="21.249992"
       id="circle4170"
       style="opacity:1;fill:none;fill-opacity:1;stroke:#0000ff;stroke-width:0.01;stroke-linejoin:round;stroke-miterlimit:4;stroke-dasharray:none;stroke-opacity:1" />
    <circle
       style="opacity:1;fill:none;fill-opacity:1;stroke:#0000ff;stroke-width:0.01;stroke-linejoin:round;stroke-miterlimit:4;stroke-dasharray:none;stroke-opacity:1"
       id="circle4172"
       cx="33.749992"
       cy="412.50003"
       r="3.7450001" />
    <circle
       style="opacity:1;fill:none;fill-opacity:1;stroke:#0000ff;stroke-width:0.01;stroke-linejoin:round;stroke-miterlimit:4;stroke-dasharray:none;stroke-opacity:1"
       id="circle4174"
       cx="8.7499914"
       cy="362.50003"
       r="3.7450001" />
    <circle
       r="3.7450001"
       cy="362.50003"
       cx="21.249992"
       id="circle4176"
       style="opacity:1;fill:none;fill-opacity:1;stroke:#0000ff;stroke-width:0.01;stroke-linejoin:round;stroke-miterlimit:4;stroke-dasharray:none;stroke-opacity:1" />
    <circle
       style="opacity:1;fill:none;fill-opacity:1;stroke:#0000ff;stroke-width:0.01;stroke-linejoin:round;stroke-miterlimit:4;stroke-dasharray:none;stroke-opacity:1"
       id="circle4178"
       cx="33.749992"
       cy="362.50003"
       r="3.7450001" />
    <circle
       r="3.7450001"
       cy="337.50003"
       cx="8.7499914"
       id="circle4180"
       style="opacity:1;fill:none;fill-opacity:1;stroke:#0000ff;stroke-width:0.01;stroke-linejoin:round;stroke-miterlimit:4;stroke-dasharray:none;stroke-opacity:1" />
    <circle
       style="opacity:1;fill:none;fill-opacity:1;stroke:#0000ff;stroke-width:0.01;stroke-linejoin:round;stroke-miterlimit:4;stroke-dasharray:none;stroke-opacity:1"
       id="circle4182"
       cx="21.249992"
       cy="337.50003"
       r="3.7450001" />
    <circle
       r="3.7450001"
       cy="337.50003"
       cx="33.749992"
       id="circle4184"
       style="opacity:1;fill:none;fill-opacity:1;stroke:#0000ff;stroke-width:0.01;stroke-linejoin:round;stroke-miterlimit:4;stroke-dasharray:none;stroke-opacity:1" />
    <circle
       r="3.7450001"
       cy="287.50003"
       cx="8.7499914"
       id="circle4186"
       style="opacity:1;fill:none;fill-opacity:1;stroke:#0000ff;stroke-width:0.01;stroke-linejoin:round;stroke-miterlimit:4;stroke-dasharray:none;stroke-opacity:1" />
    <circle
       style="opacity:1;fill:none;fill-opacity:1;stroke:#0000ff;stroke-width:0.01;stroke-linejoin:round;stroke-miterlimit:4;stroke-dasharray:none;stroke-opacity:1"
       id="circle4188"
       cx="21.249992"
       cy="287.50003"
       r="3.7450001" />
    <circle
       r="3.7450001"
       cy="287.50003"
       cx="33.749992"
       id="circle4190"
       style="opacity:1;fill:none;fill-opacity:1;stroke:#0000ff;stroke-width:0.01;stroke-linejoin:round;stroke-miterlimit:4;stroke-dasharray:none;stroke-opacity:1" />
    <circle
       style="opacity:1;fill:none;fill-opacity:1;stroke:#0000ff;stroke-width:0.01;stroke-linejoin:round;stroke-miterlimit:4;stroke-dasharray:none;stroke-opacity:1"
       id="circle4192"
       cx="8.7499914"
       cy="262.50003"
       r="3.7450001" />
    <circle
       r="3.7450001"
       cy="262.50003"
       cx="21.249992"
       id="circle4194"
       style="opacity:1;fill:none;fill-opacity:1;stroke:#0000ff;stroke-width:0.01;stroke-linejoin:round;stroke-miterlimit:4;stroke-dasharray:none;stroke-opacity:1" />
    <circle
       style="opacity:1;fill:none;fill-opacity:1;stroke:#0000ff;stroke-width:0.01;stroke-linejoin:round;stroke-miterlimit:4;stroke-dasharray:none;stroke-opacity:1"
       id="circle4196"
       cx="33.749992"
       cy="262.50003"
       r="3.7450001" />
    <circle
       style="opacity:1;fill:none;fill-opacity:1;stroke:#0000ff;stroke-width:0.01;stroke-linejoin:round;stroke-miterlimit:4;stroke-dasharray:none;stroke-opacity:1"
       id="circle4198"
       cx="8.7499914"
       cy="212.50003"
       r="3.7450001" />
    <circle
       r="3.7450001"
       cy="212.50003"
       cx="21.249992"
       id="circle4200"
       style="opacity:1;fill:none;fill-opacity:1;stroke:#0000ff;stroke-width:0.01;stroke-linejoin:round;stroke-miterlimit:4;stroke-dasharray:none;stroke-opacity:1" />
    <circle
       style="opacity:1;fill:none;fill-opacity:1;stroke:#0000ff;stroke-width:0.01;stroke-linejoin:round;stroke-miterlimit:4;stroke-dasharray:none;stroke-opacity:1"
       id="circle4202"
       cx="33.749992"
       cy="212.50003"
       r="3.7450001" />
    <circle
       r="3.7450001"
       cy="187.50003"
       cx="8.7499914"
       id="circle4204"
       style="opacity:1;fill:none;fill-opacity:1;stroke:#0000ff;stroke-width:0.01;stroke-linejoin:round;stroke-miterlimit:4;stroke-dasharray:none;stroke-opacity:1" />
    <circle
       style="opacity:1;fill:none;fill-opacity:1;stroke:#0000ff;stroke-width:0.01;stroke-linejoin:round;stroke-miterlimit:4;stroke-dasharray:none;stroke-opacity:1"
       id="circle4206"
       cx="21.249992"
       cy="187.50003"
       r="3.7450001" />
    <circle
       r="3.7450001"
       cy="187.50003"
       cx="33.749992"
       id="circle4208"
       style="opacity:1;fill:none;fill-opacity:1;stroke:#0000ff;stroke-width:0.01;stroke-linejoin:round;stroke-miterlimit:4;stroke-dasharray:none;stroke-opacity:1" />
    <circle
       r="3.7450001"
       cy="137.50003"
       cx="8.7499914"
       id="circle4210"
       style="opacity:1;fill:none;fill-opacity:1;stroke:#0000ff;stroke-width:0.01;stroke-linejoin:round;stroke-miterlimit:4;stroke-dasharray:none;stroke-opacity:1" />
    <circle
       style="opacity:1;fill:none;fill-opacity:1;stroke:#0000ff;stroke-width:0.01;stroke-linejoin:round;stroke-miterlimit:4;stroke-dasharray:none;stroke-opacity:1"
       id="circle4212"
       cx="21.249992"
       cy="137.50003"
       r="3.7450001" />
    <circle
       r="3.7450001"
       cy="137.50003"
       cx="33.749992"
       id="circle4214"
       style="opacity:1;fill:none;fill-opacity:1;stroke:#0000ff;stroke-width:0.01;stroke-linejoin:round;stroke-miterlimit:4;stroke-dasharray:none;stroke-opacity:1" />
    <circle
       style="opacity:1;fill:none;fill-opacity:1;stroke:#0000ff;stroke-width:0.01;stroke-linejoin:round;stroke-miterlimit:4;stroke-dasharray:none;stroke-opacity:1"
       id="circle4216"
       cx="8.7499914"
       cy="112.50002"
       r="3.7450001" />
    <circle
       r="3.7450001"
       cy="112.50001"
       cx="21.24999"
       id="circle4218"
       style="opacity:1;fill:none;fill-opacity:1;stroke:#0000ff;stroke-width:0.01;stroke-linejoin:round;stroke-miterlimit:4;stroke-dasharray:none;stroke-opacity:1" />
    <circle
       style="opacity:1;fill:none;fill-opacity:1;stroke:#0000ff;stroke-width:0.01;stroke-linejoin:round;stroke-miterlimit:4;stroke-dasharray:none;stroke-opacity:1"
       id="circle4220"
       cx="33.749992"
       cy="112.50002"
       r="3.7450001" />
    <circle
       style="opacity:1;fill:none;fill-opacity:1;stroke:#0000ff;stroke-width:0.01;stroke-linejoin:round;stroke-miterlimit:4;stroke-dasharray:none;stroke-opacity:1"
       id="circle4222"
       cx="8.7499914"
       cy="62.500023"
       r="3.7450001" />
    <circle
       r="3.7450001"
       cy="62.500023"
       cx="21.249992"
       id="circle4224"
       style="opacity:1;fill:none;fill-opacity:1;stroke:#0000ff;stroke-width:0.01;stroke-linejoin:round;stroke-miterlimit:4;stroke-dasharray:none;stroke-opacity:1" />
    <circle
       style="opacity:1;fill:none;fill-opacity:1;stroke:#0000ff;stroke-width:0.01;stroke-linejoin:round;stroke-miterlimit:4;stroke-dasharray:none;stroke-opacity:1"
       id="circle4226"
       cx="33.749992"
       cy="62.500023"
       r="3.7450001" />
    <circle
       r="3.7450001"
       cy="37.500023"
       cx="8.7499914"
       id="circle4228"
       style="opacity:1;fill:none;fill-opacity:1;stroke:#0000ff;stroke-width:0.01;stroke-linejoin:round;stroke-miterlimit:4;stroke-dasharray:none;stroke-opacity:1" />
    <circle
       style="opacity:1;fill:none;fill-opacity:1;stroke:#0000ff;stroke-width:0.01;stroke-linejoin:round;stroke-miterlimit:4;stroke-dasharray:none;stroke-opacity:1"
       id="circle4230"
       cx="21.249992"
       cy="37.500023"
       r="3.7450001" />
    <circle
       r="3.7450001"
       cy="37.500023"
       cx="33.749992"
       id="circle4232"
       style="opacity:1;fill:none;fill-opacity:1;stroke:#0000ff;stroke-width:0.01;stroke-linejoin:round;stroke-miterlimit:4;stroke-dasharray:none;stroke-opacity:1" />
    <ellipse
       cy="12.500024"
       cx="10.650265"
       id="circle4234"
       style="opacity:1;fill:none;fill-opacity:1;stroke:#0000ff;stroke-width:0.01;stroke-linejoin:round;stroke-miterlimit:4;stroke-dasharray:none;stroke-opacity:1"
       rx="1.7450001"
       ry="1.745" />
    <circle
       style="opacity:1;fill:none;fill-opacity:1;stroke:#0000ff;stroke-width:0.01;stroke-linejoin:round;stroke-miterlimit:4;stroke-dasharray:none;stroke-opacity:1"
       id="circle4236"
       cx="31.850267"
       cy="12.500024"
       r="1.7450001" />
    <circle
       r="1.7450001"
       cy="387.50003"
       cx="10.650265"
       id="circle4238"
       style="opacity:1;fill:none;fill-opacity:1;stroke:#0000ff;stroke-width:0.01;stroke-linejoin:round;stroke-miterlimit:4;stroke-dasharray:none;stroke-opacity:1" />
    <circle
       style="opacity:1;fill:none;fill-opacity:1;stroke:#0000ff;stroke-width:0.01;stroke-linejoin:round;stroke-miterlimit:4;stroke-dasharray:none;stroke-opacity:1"
       id="circle4240"
       cx="31.850266"
       cy="387.50003"
       r="1.7450001" />
    <circle
       style="opacity:1;fill:none;fill-opacity:1;stroke:#0000ff;stroke-width:0.01;stroke-linejoin:round;stroke-miterlimit:4;stroke-dasharray:none;stroke-opacity:1"
       id="circle4242"
       cx="10.650265"
       cy="162.50003"
       r="1.7450001" />
    <circle
       r="1.7450001"
       cy="162.50003"
       cx="31.850266"
       id="circle4244"
       style="opacity:1;fill:none;fill-opacity:1;stroke:#0000ff;stroke-width:0.01;stroke-linejoin:round;stroke-miterlimit:4;stroke-dasharray:none;stroke-opacity:1" />
    <g
       style="font-style:normal;font-weight:normal;font-size:25px;line-height:125%;font-family:sans-serif;letter-spacing:0px;word-spacing:0px;fill:#000000;fill-opacity:1;stroke:none;stroke-width:1px;stroke-linecap:butt;stroke-linejoin:miter;stroke-opacity:1"
       id="text4246">
      <path
         d="m 31.462402,50.490726 -1.301269,0 0,1.289063 -0.668946,0 0,-1.289063 -1.301269,0 0,-0.654296 1.301269,0 0,-1.289063 0.668946,0 0,1.289063 1.301269,0 0,0.654296 z"
         style="font-style:normal;font-variant:normal;font-weight:bold;font-stretch:normal;font-size:5px;font-family:sans-serif;-inkscape-font-specification:'sans-serif Bold'"
         id="path4554" />
      <path
         d="m 35.222168,50.54932 q 0,0.283203 -0.107422,0.527344 -0.10498,0.241699 -0.307617,0.415039 -0.224609,0.185547 -0.517578,0.275879 -0.290528,0.08789 -0.664063,0.08789 -0.437011,-0.0024 -0.739746,-0.0708 -0.300293,-0.06592 -0.490722,-0.148926 l 0,-0.803223 0.102539,0 q 0.222168,0.131836 0.478515,0.219727 0.256348,0.08789 0.510254,0.08789 0.153809,0 0.332031,-0.03418 0.180664,-0.03662 0.285645,-0.129395 0.08301,-0.07568 0.124512,-0.153808 0.04395,-0.07813 0.04395,-0.241699 0,-0.126954 -0.05859,-0.217286 -0.05615,-0.09277 -0.146484,-0.148925 -0.131836,-0.08057 -0.317383,-0.104981 -0.185547,-0.02686 -0.336914,-0.02686 -0.219727,0 -0.422363,0.03906 -0.200196,0.03662 -0.351563,0.07324 l -0.107422,0 0,-2.050781 2.585449,0 0,0.695801 -1.704101,0 0,0.593262 q 0.07568,-0.0049 0.19043,-0.0073 0.117187,-0.0049 0.205078,-0.0049 0.300293,0 0.534668,0.05859 0.236816,0.05615 0.407715,0.158692 0.222168,0.134277 0.346679,0.356445 0.124512,0.219727 0.124512,0.554199 z"
         style="font-style:normal;font-variant:normal;font-weight:bold;font-stretch:normal;font-size:5px;font-family:sans-serif;-inkscape-font-specification:'sans-serif Bold'"
         id="path4556" />
      <path
         d="m 39.309082,48.144535 -1.325684,3.635254 -1.049804,0 -1.325684,-3.635254 0.983887,0 0.878906,2.553711 0.878906,-2.553711 0.959473,0 z"
         style="font-style:normal;font-variant:normal;font-weight:bold;font-stretch:normal;font-size:5px;font-family:sans-serif;-inkscape-font-specification:'sans-serif Bold'"
         id="path4558" />
    </g>
    <g
       style="font-style:normal;font-weight:normal;font-size:25px;line-height:125%;font-family:sans-serif;letter-spacing:0px;word-spacing:0px;fill:#000000;fill-opacity:1;stroke:none;stroke-width:1px;stroke-linecap:butt;stroke-linejoin:miter;stroke-opacity:1"
       id="text4250">
      <path
         d="m 5.888793,50.515125 -1.862793,0 0,-0.703125 1.862793,0 0,0.703125 z"
         style="font-style:normal;font-variant:normal;font-weight:bold;font-stretch:normal;font-size:5px;font-family:sans-serif;-inkscape-font-specification:'sans-serif Bold'"
         id="path4547" />
      <path
         d="m 9.3873281,50.549305 q 0,0.283203 -0.1074218,0.527344 -0.1049805,0.241699 -0.3076172,0.415039 -0.2246094,0.185547 -0.5175781,0.275879 -0.2905274,0.08789 -0.6640625,0.08789 -0.4370118,-0.0024 -0.7397461,-0.0708 -0.300293,-0.06592 -0.4907227,-0.148926 l 0,-0.803223 0.1025391,0 q 0.2221679,0.131836 0.4785156,0.219727 0.2563477,0.08789 0.5102539,0.08789 0.1538086,0 0.3320313,-0.03418 0.180664,-0.03662 0.2856445,-0.129395 0.083008,-0.07568 0.1245117,-0.153809 0.043945,-0.07813 0.043945,-0.241699 0,-0.126953 -0.058594,-0.217285 -0.056152,-0.09277 -0.1464844,-0.148926 -0.1318359,-0.08057 -0.3173828,-0.10498 -0.1855469,-0.02686 -0.3369141,-0.02686 -0.2197265,0 -0.4223633,0.03906 -0.2001953,0.03662 -0.3515625,0.07324 l -0.1074218,0 0,-2.050781 2.5854492,0 0,0.695801 -1.7041016,0 0,0.593261 q 0.075684,-0.0049 0.1904297,-0.0073 0.1171875,-0.0049 0.2050781,-0.0049 0.300293,0 0.534668,0.05859 0.2368164,0.05615 0.4077148,0.158691 0.222168,0.134278 0.3466797,0.356446 0.1245117,0.219726 0.1245117,0.554199 z"
         style="font-style:normal;font-variant:normal;font-weight:bold;font-stretch:normal;font-size:5px;font-family:sans-serif;-inkscape-font-specification:'sans-serif Bold'"
         id="path4549" />
      <path
         d="m 13.474242,48.14452 -1.325683,3.635254 -1.049805,0 -1.3256837,-3.635254 0.9838867,0 0.878906,2.553711 0.878907,-2.553711 0.959472,0 z"
         style="font-style:normal;font-variant:normal;font-weight:bold;font-stretch:normal;font-size:5px;font-family:sans-serif;-inkscape-font-specification:'sans-serif Bold'"
         id="path4551" />
    </g>
    <g
       style="font-style:normal;font-weight:normal;font-size:25px;line-height:125%;font-family:sans-serif;letter-spacing:0px;word-spacing:0px;fill:#000000;fill-opacity:1;stroke:none;stroke-width:1px;stroke-linecap:butt;stroke-linejoin:miter;stroke-opacity:1"
       id="text4254">
      <path
         d="m 20.737812,49.960468 q 0,0.458985 -0.08301,0.822754 -0.08301,0.361328 -0.258789,0.593262 -0.180664,0.236816 -0.463867,0.358887 -0.283203,0.119629 -0.698242,0.119629 -0.407715,0 -0.695801,-0.122071 -0.288086,-0.12207 -0.466309,-0.361328 -0.180664,-0.239258 -0.26123,-0.593262 Q 17.73,50.421894 17.73,49.96291 q 0,-0.473633 0.08301,-0.822754 0.08301,-0.349121 0.263672,-0.590821 0.180664,-0.239257 0.46875,-0.358886 0.288086,-0.119629 0.688477,-0.119629 0.41748,0 0.700683,0.124512 0.283204,0.12207 0.463868,0.366211 0.178222,0.239257 0.258789,0.59082 0.08057,0.349121 0.08057,0.808105 z m -0.944824,0 q 0,-0.659179 -0.129395,-0.9375 -0.129394,-0.280761 -0.429687,-0.280761 -0.300293,0 -0.429688,0.280761 -0.129394,0.278321 -0.129394,0.942383 0,0.646973 0.131836,0.932617 0.131836,0.285645 0.427246,0.285645 0.29541,0 0.427246,-0.285645 0.131836,-0.285644 0.131836,-0.9375 z"
         style="font-style:normal;font-variant:normal;font-weight:bold;font-stretch:normal;font-size:5px;font-family:sans-serif;-inkscape-font-specification:'sans-serif Bold'"
         id="path4542" />
      <path
         d="m 24.771015,48.144062 -1.325683,3.635254 -1.049805,0 -1.325684,-3.635254 0.983887,0 0.878906,2.553711 0.878907,-2.553711 0.959472,0 z"
         style="font-style:normal;font-variant:normal;font-weight:bold;font-stretch:normal;font-size:5px;font-family:sans-serif;-inkscape-font-specification:'sans-serif Bold'"
         id="path4544" />
    </g>
    <g
       style="font-style:normal;font-weight:normal;font-size:25px;line-height:125%;font-family:sans-serif;letter-spacing:0px;word-spacing:0px;fill:#000000;fill-opacity:1;stroke:none;stroke-width:1px;stroke-linecap:butt;stroke-linejoin:miter;stroke-opacity:1"
       id="text4258">
      <path
         d="m 31.462402,125.49026 -1.301269,0 0,1.28906 -0.668946,0 0,-1.28906 -1.301269,0 0,-0.6543 1.301269,0 0,-1.28906 0.668946,0 0,1.28906 1.301269,0 0,0.6543 z"
         style="font-style:normal;font-variant:normal;font-weight:bold;font-stretch:normal;font-size:5px;font-family:sans-serif;-inkscape-font-specification:'sans-serif Bold'"
         id="path4535" />
      <path
         d="m 35.222168,125.54885 q 0,0.2832 -0.107422,0.52734 -0.10498,0.2417 -0.307617,0.41504 -0.224609,0.18555 -0.517578,0.27588 -0.290528,0.0879 -0.664063,0.0879 -0.437011,-0.002 -0.739746,-0.0708 -0.300293,-0.0659 -0.490722,-0.14892 l 0,-0.80323 0.102539,0 q 0.222168,0.13184 0.478515,0.21973 0.256348,0.0879 0.510254,0.0879 0.153809,0 0.332031,-0.0342 0.180664,-0.0366 0.285645,-0.12939 0.08301,-0.0757 0.124512,-0.15381 0.04395,-0.0781 0.04395,-0.2417 0,-0.12695 -0.05859,-0.21729 -0.05615,-0.0928 -0.146484,-0.14892 -0.131836,-0.0806 -0.317383,-0.10498 -0.185547,-0.0269 -0.336914,-0.0269 -0.219727,0 -0.422363,0.0391 -0.200196,0.0366 -0.351563,0.0733 l -0.107422,0 0,-2.05078 2.585449,0 0,0.6958 -1.704101,0 0,0.59326 q 0.07568,-0.005 0.19043,-0.007 0.117187,-0.005 0.205078,-0.005 0.300293,0 0.534668,0.0586 0.236816,0.0562 0.407715,0.15869 0.222168,0.13427 0.346679,0.35644 0.124512,0.21973 0.124512,0.5542 z"
         style="font-style:normal;font-variant:normal;font-weight:bold;font-stretch:normal;font-size:5px;font-family:sans-serif;-inkscape-font-specification:'sans-serif Bold'"
         id="path4537" />
      <path
         d="m 39.309082,123.14407 -1.325684,3.63525 -1.049804,0 -1.325684,-3.63525 0.983887,0 0.878906,2.55371 0.878906,-2.55371 0.959473,0 z"
         style="font-style:normal;font-variant:normal;font-weight:bold;font-stretch:normal;font-size:5px;font-family:sans-serif;-inkscape-font-specification:'sans-serif Bold'"
         id="path4539" />
    </g>
    <g
       style="font-style:normal;font-weight:normal;font-size:25px;line-height:125%;font-family:sans-serif;letter-spacing:0px;word-spacing:0px;fill:#000000;fill-opacity:1;stroke:none;stroke-width:1px;stroke-linecap:butt;stroke-linejoin:miter;stroke-opacity:1"
       id="text4262">
      <path
         d="m 5.888793,125.51465 -1.862793,0 0,-0.70313 1.862793,0 0,0.70313 z"
         style="font-style:normal;font-variant:normal;font-weight:bold;font-stretch:normal;font-size:5px;font-family:sans-serif;-inkscape-font-specification:'sans-serif Bold'"
         id="path4528" />
      <path
         d="m 9.3873281,125.54883 q 0,0.2832 -0.1074218,0.52734 -0.1049805,0.2417 -0.3076172,0.41504 -0.2246094,0.18555 -0.5175781,0.27588 -0.2905274,0.0879 -0.6640625,0.0879 -0.4370118,-0.002 -0.7397461,-0.0708 -0.300293,-0.0659 -0.4907227,-0.14893 l 0,-0.80322 0.1025391,0 q 0.2221679,0.13184 0.4785156,0.21973 0.2563477,0.0879 0.5102539,0.0879 0.1538086,0 0.3320313,-0.0342 0.180664,-0.0366 0.2856445,-0.1294 0.083008,-0.0757 0.1245117,-0.1538 0.043945,-0.0781 0.043945,-0.2417 0,-0.12696 -0.058594,-0.21729 -0.056152,-0.0928 -0.1464844,-0.14892 -0.1318359,-0.0806 -0.3173828,-0.10498 -0.1855469,-0.0269 -0.3369141,-0.0269 -0.2197265,0 -0.4223633,0.0391 -0.2001953,0.0366 -0.3515625,0.0732 l -0.1074218,0 0,-2.05078 2.5854492,0 0,0.6958 -1.7041016,0 0,0.59327 q 0.075684,-0.005 0.1904297,-0.007 0.1171875,-0.005 0.2050781,-0.005 0.300293,0 0.534668,0.0586 0.2368164,0.0562 0.4077148,0.15869 0.222168,0.13428 0.3466797,0.35645 0.1245117,0.21973 0.1245117,0.5542 z"
         style="font-style:normal;font-variant:normal;font-weight:bold;font-stretch:normal;font-size:5px;font-family:sans-serif;-inkscape-font-specification:'sans-serif Bold'"
         id="path4530" />
      <path
         d="m 13.474242,123.14404 -1.325683,3.63526 -1.049805,0 -1.3256837,-3.63526 0.9838867,0 0.878906,2.55371 0.878907,-2.55371 0.959472,0 z"
         style="font-style:normal;font-variant:normal;font-weight:bold;font-stretch:normal;font-size:5px;font-family:sans-serif;-inkscape-font-specification:'sans-serif Bold'"
         id="path4532" />
    </g>
    <g
       style="font-style:normal;font-weight:normal;font-size:25px;line-height:125%;font-family:sans-serif;letter-spacing:0px;word-spacing:0px;fill:#000000;fill-opacity:1;stroke:none;stroke-width:1px;stroke-linecap:butt;stroke-linejoin:miter;stroke-opacity:1"
       id="text4266">
      <path
         d="m 20.737812,124.96 q 0,0.45898 -0.08301,0.82275 -0.08301,0.36133 -0.258789,0.59326 -0.180664,0.23682 -0.463867,0.35889 -0.283203,0.11963 -0.698242,0.11963 -0.407715,0 -0.695801,-0.12207 -0.288086,-0.12207 -0.466309,-0.36133 -0.180664,-0.23926 -0.26123,-0.59326 -0.08057,-0.35645 -0.08057,-0.81543 0,-0.47363 0.08301,-0.82275 0.08301,-0.34912 0.263672,-0.59082 0.180664,-0.23926 0.46875,-0.35889 0.288086,-0.11963 0.688477,-0.11963 0.41748,0 0.700683,0.12451 0.283204,0.12207 0.463868,0.36621 0.178222,0.23926 0.258789,0.59082 0.08057,0.34912 0.08057,0.80811 z m -0.944824,0 q 0,-0.65918 -0.129395,-0.9375 -0.129394,-0.28076 -0.429687,-0.28076 -0.300293,0 -0.429688,0.28076 -0.129394,0.27832 -0.129394,0.94238 0,0.64697 0.131836,0.93262 0.131836,0.28564 0.427246,0.28564 0.29541,0 0.427246,-0.28564 0.131836,-0.28565 0.131836,-0.9375 z"
         style="font-style:normal;font-variant:normal;font-weight:bold;font-stretch:normal;font-size:5px;font-family:sans-serif;-inkscape-font-specification:'sans-serif Bold'"
         id="path4523" />
      <path
         d="m 24.771015,123.14359 -1.325683,3.63526 -1.049805,0 -1.325684,-3.63526 0.983887,0 0.878906,2.55371 0.878907,-2.55371 0.959472,0 z"
         style="font-style:normal;font-variant:normal;font-weight:bold;font-stretch:normal;font-size:5px;font-family:sans-serif;-inkscape-font-specification:'sans-serif Bold'"
         id="path4525" />
    </g>
    <g
       style="font-style:normal;font-weight:normal;font-size:25px;line-height:125%;font-family:sans-serif;letter-spacing:0px;word-spacing:0px;fill:#000000;fill-opacity:1;stroke:none;stroke-width:1px;stroke-linecap:butt;stroke-linejoin:miter;stroke-opacity:1"
       id="text4270">
      <path
         d="m 31.462402,200.49025 -1.301269,0 0,1.28906 -0.668946,0 0,-1.28906 -1.301269,0 0,-0.6543 1.301269,0 0,-1.28906 0.668946,0 0,1.28906 1.301269,0 0,0.6543 z"
         style="font-style:normal;font-variant:normal;font-weight:bold;font-stretch:normal;font-size:5px;font-family:sans-serif;-inkscape-font-specification:'sans-serif Bold'"
         id="path4516" />
      <path
         d="m 35.222168,200.54884 q 0,0.28321 -0.107422,0.52735 -0.10498,0.2417 -0.307617,0.41504 -0.224609,0.18554 -0.517578,0.27588 -0.290528,0.0879 -0.664063,0.0879 -0.437011,-0.002 -0.739746,-0.0708 -0.300293,-0.0659 -0.490722,-0.14892 l 0,-0.80322 0.102539,0 q 0.222168,0.13183 0.478515,0.21972 0.256348,0.0879 0.510254,0.0879 0.153809,0 0.332031,-0.0342 0.180664,-0.0366 0.285645,-0.12939 0.08301,-0.0757 0.124512,-0.15381 0.04395,-0.0781 0.04395,-0.2417 0,-0.12695 -0.05859,-0.21728 -0.05615,-0.0928 -0.146484,-0.14893 -0.131836,-0.0806 -0.317383,-0.10498 -0.185547,-0.0269 -0.336914,-0.0269 -0.219727,0 -0.422363,0.0391 -0.200196,0.0366 -0.351563,0.0732 l -0.107422,0 0,-2.05078 2.585449,0 0,0.6958 -1.704101,0 0,0.59326 q 0.07568,-0.005 0.19043,-0.007 0.117187,-0.005 0.205078,-0.005 0.300293,0 0.534668,0.0586 0.236816,0.0562 0.407715,0.15869 0.222168,0.13428 0.346679,0.35644 0.124512,0.21973 0.124512,0.5542 z"
         style="font-style:normal;font-variant:normal;font-weight:bold;font-stretch:normal;font-size:5px;font-family:sans-serif;-inkscape-font-specification:'sans-serif Bold'"
         id="path4518" />
      <path
         d="m 39.309082,198.14406 -1.325684,3.63525 -1.049804,0 -1.325684,-3.63525 0.983887,0 0.878906,2.55371 0.878906,-2.55371 0.959473,0 z"
         style="font-style:normal;font-variant:normal;font-weight:bold;font-stretch:normal;font-size:5px;font-family:sans-serif;-inkscape-font-specification:'sans-serif Bold'"
         id="path4520" />
    </g>
    <g
       style="font-style:normal;font-weight:normal;font-size:25px;line-height:125%;font-family:sans-serif;letter-spacing:0px;word-spacing:0px;fill:#000000;fill-opacity:1;stroke:none;stroke-width:1px;stroke-linecap:butt;stroke-linejoin:miter;stroke-opacity:1"
       id="text4274">
      <path
         d="m 5.888793,200.51465 -1.862793,0 0,-0.70313 1.862793,0 0,0.70313 z"
         style="font-style:normal;font-variant:normal;font-weight:bold;font-stretch:normal;font-size:5px;font-family:sans-serif;-inkscape-font-specification:'sans-serif Bold'"
         id="path4509" />
      <path
         d="m 9.3873281,200.54883 q 0,0.2832 -0.1074218,0.52734 -0.1049805,0.2417 -0.3076172,0.41504 -0.2246094,0.18555 -0.5175781,0.27588 -0.2905274,0.0879 -0.6640625,0.0879 -0.4370118,-0.002 -0.7397461,-0.0708 -0.300293,-0.0659 -0.4907227,-0.14893 l 0,-0.80322 0.1025391,0 q 0.2221679,0.13184 0.4785156,0.21973 0.2563477,0.0879 0.5102539,0.0879 0.1538086,0 0.3320313,-0.0342 0.180664,-0.0366 0.2856445,-0.1294 0.083008,-0.0757 0.1245117,-0.1538 0.043945,-0.0781 0.043945,-0.2417 0,-0.12696 -0.058594,-0.21729 -0.056152,-0.0928 -0.1464844,-0.14892 -0.1318359,-0.0806 -0.3173828,-0.10499 -0.1855469,-0.0269 -0.3369141,-0.0269 -0.2197265,0 -0.4223633,0.0391 -0.2001953,0.0366 -0.3515625,0.0732 l -0.1074218,0 0,-2.05078 2.5854492,0 0,0.6958 -1.7041016,0 0,0.59327 q 0.075684,-0.005 0.1904297,-0.007 0.1171875,-0.005 0.2050781,-0.005 0.300293,0 0.534668,0.0586 0.2368164,0.0562 0.4077148,0.15869 0.222168,0.13428 0.3466797,0.35645 0.1245117,0.21973 0.1245117,0.5542 z"
         style="font-style:normal;font-variant:normal;font-weight:bold;font-stretch:normal;font-size:5px;font-family:sans-serif;-inkscape-font-specification:'sans-serif Bold'"
         id="path4511" />
      <path
         d="m 13.474242,198.14404 -1.325683,3.63526 -1.049805,0 -1.3256837,-3.63526 0.9838867,0 0.878906,2.55371 0.878907,-2.55371 0.959472,0 z"
         style="font-style:normal;font-variant:normal;font-weight:bold;font-stretch:normal;font-size:5px;font-family:sans-serif;-inkscape-font-specification:'sans-serif Bold'"
         id="path4513" />
    </g>
    <g
       style="font-style:normal;font-weight:normal;font-size:25px;line-height:125%;font-family:sans-serif;letter-spacing:0px;word-spacing:0px;fill:#000000;fill-opacity:1;stroke:none;stroke-width:1px;stroke-linecap:butt;stroke-linejoin:miter;stroke-opacity:1"
       id="text4278">
      <path
         d="m 20.737812,199.95999 q 0,0.45899 -0.08301,0.82276 -0.08301,0.36132 -0.258789,0.59326 -0.180664,0.23681 -0.463867,0.35888 -0.283203,0.11963 -0.698242,0.11963 -0.407715,0 -0.695801,-0.12207 -0.288086,-0.12207 -0.466309,-0.36133 -0.180664,-0.23925 -0.26123,-0.59326 -0.08057,-0.35644 -0.08057,-0.81543 0,-0.47363 0.08301,-0.82275 0.08301,-0.34912 0.263672,-0.59082 0.180664,-0.23926 0.46875,-0.35889 0.288086,-0.11963 0.688477,-0.11963 0.41748,0 0.700683,0.12451 0.283204,0.12208 0.463868,0.36622 0.178222,0.23925 0.258789,0.59082 0.08057,0.34912 0.08057,0.8081 z m -0.944824,0 q 0,-0.65918 -0.129395,-0.9375 -0.129394,-0.28076 -0.429687,-0.28076 -0.300293,0 -0.429688,0.28076 -0.129394,0.27832 -0.129394,0.94238 0,0.64698 0.131836,0.93262 0.131836,0.28565 0.427246,0.28565 0.29541,0 0.427246,-0.28565 0.131836,-0.28564 0.131836,-0.9375 z"
         style="font-style:normal;font-variant:normal;font-weight:bold;font-stretch:normal;font-size:5px;font-family:sans-serif;-inkscape-font-specification:'sans-serif Bold'"
         id="path4504" />
      <path
         d="m 24.771015,198.14359 -1.325683,3.63525 -1.049805,0 -1.325684,-3.63525 0.983887,0 0.878906,2.55371 0.878907,-2.55371 0.959472,0 z"
         style="font-style:normal;font-variant:normal;font-weight:bold;font-stretch:normal;font-size:5px;font-family:sans-serif;-inkscape-font-specification:'sans-serif Bold'"
         id="path4506" />
    </g>
    <g
       style="font-style:normal;font-weight:normal;font-size:25px;line-height:125%;font-family:sans-serif;letter-spacing:0px;word-spacing:0px;fill:#000000;fill-opacity:1;stroke:none;stroke-width:1px;stroke-linecap:butt;stroke-linejoin:miter;stroke-opacity:1"
       id="text4282">
      <path
         d="m 31.462402,275.49026 -1.301269,0 0,1.28907 -0.668946,0 0,-1.28907 -1.301269,0 0,-0.65429 1.301269,0 0,-1.28906 0.668946,0 0,1.28906 1.301269,0 0,0.65429 z"
         style="font-style:normal;font-variant:normal;font-weight:bold;font-stretch:normal;font-size:5px;font-family:sans-serif;-inkscape-font-specification:'sans-serif Bold'"
         id="path4497" />
      <path
         d="m 35.222168,275.54886 q 0,0.2832 -0.107422,0.52734 -0.10498,0.2417 -0.307617,0.41504 -0.224609,0.18555 -0.517578,0.27588 -0.290528,0.0879 -0.664063,0.0879 -0.437011,-0.002 -0.739746,-0.0708 -0.300293,-0.0659 -0.490722,-0.14893 l 0,-0.80322 0.102539,0 q 0.222168,0.13184 0.478515,0.21973 0.256348,0.0879 0.510254,0.0879 0.153809,0 0.332031,-0.0342 0.180664,-0.0366 0.285645,-0.1294 0.08301,-0.0757 0.124512,-0.1538 0.04395,-0.0781 0.04395,-0.2417 0,-0.12696 -0.05859,-0.21729 -0.05615,-0.0928 -0.146484,-0.14892 -0.131836,-0.0806 -0.317383,-0.10498 -0.185547,-0.0269 -0.336914,-0.0269 -0.219727,0 -0.422363,0.0391 -0.200196,0.0366 -0.351563,0.0732 l -0.107422,0 0,-2.05078 2.585449,0 0,0.6958 -1.704101,0 0,0.59327 q 0.07568,-0.005 0.19043,-0.007 0.117187,-0.005 0.205078,-0.005 0.300293,0 0.534668,0.0586 0.236816,0.0562 0.407715,0.15869 0.222168,0.13428 0.346679,0.35645 0.124512,0.21973 0.124512,0.5542 z"
         style="font-style:normal;font-variant:normal;font-weight:bold;font-stretch:normal;font-size:5px;font-family:sans-serif;-inkscape-font-specification:'sans-serif Bold'"
         id="path4499" />
      <path
         d="m 39.309082,273.14407 -1.325684,3.63526 -1.049804,0 -1.325684,-3.63526 0.983887,0 0.878906,2.55371 0.878906,-2.55371 0.959473,0 z"
         style="font-style:normal;font-variant:normal;font-weight:bold;font-stretch:normal;font-size:5px;font-family:sans-serif;-inkscape-font-specification:'sans-serif Bold'"
         id="path4501" />
    </g>
    <g
       style="font-style:normal;font-weight:normal;font-size:25px;line-height:125%;font-family:sans-serif;letter-spacing:0px;word-spacing:0px;fill:#000000;fill-opacity:1;stroke:none;stroke-width:1px;stroke-linecap:butt;stroke-linejoin:miter;stroke-opacity:1"
       id="text4286">
      <path
         d="m 5.888793,275.51465 -1.862793,0 0,-0.70313 1.862793,0 0,0.70313 z"
         style="font-style:normal;font-variant:normal;font-weight:bold;font-stretch:normal;font-size:5px;font-family:sans-serif;-inkscape-font-specification:'sans-serif Bold'"
         id="path4490" />
      <path
         d="m 9.3873281,275.54883 q 0,0.2832 -0.1074218,0.52734 -0.1049805,0.2417 -0.3076172,0.41504 -0.2246094,0.18555 -0.5175781,0.27588 -0.2905274,0.0879 -0.6640625,0.0879 -0.4370118,-0.002 -0.7397461,-0.0708 -0.300293,-0.0659 -0.4907227,-0.14893 l 0,-0.80322 0.1025391,0 q 0.2221679,0.13184 0.4785156,0.21973 0.2563477,0.0879 0.5102539,0.0879 0.1538086,0 0.3320313,-0.0342 0.180664,-0.0366 0.2856445,-0.1294 0.083008,-0.0757 0.1245117,-0.1538 0.043945,-0.0781 0.043945,-0.2417 0,-0.12696 -0.058594,-0.21729 -0.056152,-0.0928 -0.1464844,-0.14892 -0.1318359,-0.0806 -0.3173828,-0.10499 -0.1855469,-0.0269 -0.3369141,-0.0269 -0.2197265,0 -0.4223633,0.0391 -0.2001953,0.0366 -0.3515625,0.0732 l -0.1074218,0 0,-2.05078 2.5854492,0 0,0.6958 -1.7041016,0 0,0.59327 q 0.075684,-0.005 0.1904297,-0.007 0.1171875,-0.005 0.2050781,-0.005 0.300293,0 0.534668,0.0586 0.2368164,0.0562 0.4077148,0.15869 0.222168,0.13428 0.3466797,0.35645 0.1245117,0.21973 0.1245117,0.5542 z"
         style="font-style:normal;font-variant:normal;font-weight:bold;font-stretch:normal;font-size:5px;font-family:sans-serif;-inkscape-font-specification:'sans-serif Bold'"
         id="path4492" />
      <path
         d="m 13.474242,273.14404 -1.325683,3.63526 -1.049805,0 -1.3256837,-3.63526 0.9838867,0 0.878906,2.55371 0.878907,-2.55371 0.959472,0 z"
         style="font-style:normal;font-variant:normal;font-weight:bold;font-stretch:normal;font-size:5px;font-family:sans-serif;-inkscape-font-specification:'sans-serif Bold'"
         id="path4494" />
    </g>
    <g
       style="font-style:normal;font-weight:normal;font-size:25px;line-height:125%;font-family:sans-serif;letter-spacing:0px;word-spacing:0px;fill:#000000;fill-opacity:1;stroke:none;stroke-width:1px;stroke-linecap:butt;stroke-linejoin:miter;stroke-opacity:1"
       id="text4290">
      <path
         d="m 20.737812,274.95999 q 0,0.45899 -0.08301,0.82276 -0.08301,0.36132 -0.258789,0.59326 -0.180664,0.23681 -0.463867,0.35888 -0.283203,0.11963 -0.698242,0.11963 -0.407715,0 -0.695801,-0.12207 -0.288086,-0.12207 -0.466309,-0.36133 -0.180664,-0.23925 -0.26123,-0.59326 -0.08057,-0.35644 -0.08057,-0.81543 0,-0.47363 0.08301,-0.82275 0.08301,-0.34912 0.263672,-0.59082 0.180664,-0.23926 0.46875,-0.35889 0.288086,-0.11963 0.688477,-0.11963 0.41748,0 0.700683,0.12451 0.283204,0.12208 0.463868,0.36622 0.178222,0.23925 0.258789,0.59082 0.08057,0.34912 0.08057,0.8081 z m -0.944824,0 q 0,-0.65918 -0.129395,-0.9375 -0.129394,-0.28076 -0.429687,-0.28076 -0.300293,0 -0.429688,0.28076 -0.129394,0.27832 -0.129394,0.94238 0,0.64698 0.131836,0.93262 0.131836,0.28565 0.427246,0.28565 0.29541,0 0.427246,-0.28565 0.131836,-0.28564 0.131836,-0.9375 z"
         style="font-style:normal;font-variant:normal;font-weight:bold;font-stretch:normal;font-size:5px;font-family:sans-serif;-inkscape-font-specification:'sans-serif Bold'"
         id="path4485" />
      <path
         d="m 24.771015,273.14359 -1.325683,3.63525 -1.049805,0 -1.325684,-3.63525 0.983887,0 0.878906,2.55371 0.878907,-2.55371 0.959472,0 z"
         style="font-style:normal;font-variant:normal;font-weight:bold;font-stretch:normal;font-size:5px;font-family:sans-serif;-inkscape-font-specification:'sans-serif Bold'"
         id="path4487" />
    </g>
    <g
       style="font-style:normal;font-weight:normal;font-size:25px;line-height:125%;font-family:sans-serif;letter-spacing:0px;word-spacing:0px;fill:#000000;fill-opacity:1;stroke:none;stroke-width:1px;stroke-linecap:butt;stroke-linejoin:miter;stroke-opacity:1"
       id="text4294">
      <path
         d="m 31.462402,350.49026 -1.301269,0 0,1.28907 -0.668946,0 0,-1.28907 -1.301269,0 0,-0.65429 1.301269,0 0,-1.28906 0.668946,0 0,1.28906 1.301269,0 0,0.65429 z"
         style="font-style:normal;font-variant:normal;font-weight:bold;font-stretch:normal;font-size:5px;font-family:sans-serif;-inkscape-font-specification:'sans-serif Bold'"
         id="path4478" />
      <path
         d="m 35.222168,350.54886 q 0,0.2832 -0.107422,0.52734 -0.10498,0.2417 -0.307617,0.41504 -0.224609,0.18555 -0.517578,0.27588 -0.290528,0.0879 -0.664063,0.0879 -0.437011,-0.002 -0.739746,-0.0708 -0.300293,-0.0659 -0.490722,-0.14893 l 0,-0.80322 0.102539,0 q 0.222168,0.13184 0.478515,0.21973 0.256348,0.0879 0.510254,0.0879 0.153809,0 0.332031,-0.0342 0.180664,-0.0366 0.285645,-0.1294 0.08301,-0.0757 0.124512,-0.1538 0.04395,-0.0781 0.04395,-0.2417 0,-0.12696 -0.05859,-0.21729 -0.05615,-0.0928 -0.146484,-0.14892 -0.131836,-0.0806 -0.317383,-0.10498 -0.185547,-0.0269 -0.336914,-0.0269 -0.219727,0 -0.422363,0.0391 -0.200196,0.0366 -0.351563,0.0732 l -0.107422,0 0,-2.05078 2.585449,0 0,0.6958 -1.704101,0 0,0.59327 q 0.07568,-0.005 0.19043,-0.007 0.117187,-0.005 0.205078,-0.005 0.300293,0 0.534668,0.0586 0.236816,0.0562 0.407715,0.15869 0.222168,0.13428 0.346679,0.35645 0.124512,0.21973 0.124512,0.5542 z"
         style="font-style:normal;font-variant:normal;font-weight:bold;font-stretch:normal;font-size:5px;font-family:sans-serif;-inkscape-font-specification:'sans-serif Bold'"
         id="path4480" />
      <path
         d="m 39.309082,348.14407 -1.325684,3.63526 -1.049804,0 -1.325684,-3.63526 0.983887,0 0.878906,2.55371 0.878906,-2.55371 0.959473,0 z"
         style="font-style:normal;font-variant:normal;font-weight:bold;font-stretch:normal;font-size:5px;font-family:sans-serif;-inkscape-font-specification:'sans-serif Bold'"
         id="path4482" />
    </g>
    <g
       style="font-style:normal;font-weight:normal;font-size:25px;line-height:125%;font-family:sans-serif;letter-spacing:0px;word-spacing:0px;fill:#000000;fill-opacity:1;stroke:none;stroke-width:1px;stroke-linecap:butt;stroke-linejoin:miter;stroke-opacity:1"
       id="text4298">
      <path
         d="m 5.888793,350.51465 -1.862793,0 0,-0.70313 1.862793,0 0,0.70313 z"
         style="font-style:normal;font-variant:normal;font-weight:bold;font-stretch:normal;font-size:5px;font-family:sans-serif;-inkscape-font-specification:'sans-serif Bold'"
         id="path4471" />
      <path
         d="m 9.3873281,350.54883 q 0,0.2832 -0.1074218,0.52734 -0.1049805,0.2417 -0.3076172,0.41504 -0.2246094,0.18555 -0.5175781,0.27588 -0.2905274,0.0879 -0.6640625,0.0879 -0.4370118,-0.002 -0.7397461,-0.0708 -0.300293,-0.0659 -0.4907227,-0.14893 l 0,-0.80322 0.1025391,0 q 0.2221679,0.13184 0.4785156,0.21973 0.2563477,0.0879 0.5102539,0.0879 0.1538086,0 0.3320313,-0.0342 0.180664,-0.0366 0.2856445,-0.1294 0.083008,-0.0757 0.1245117,-0.1538 0.043945,-0.0781 0.043945,-0.2417 0,-0.12696 -0.058594,-0.21729 -0.056152,-0.0928 -0.1464844,-0.14892 -0.1318359,-0.0806 -0.3173828,-0.10499 -0.1855469,-0.0269 -0.3369141,-0.0269 -0.2197265,0 -0.4223633,0.0391 -0.2001953,0.0366 -0.3515625,0.0732 l -0.1074218,0 0,-2.05078 2.5854492,0 0,0.6958 -1.7041016,0 0,0.59327 q 0.075684,-0.005 0.1904297,-0.007 0.1171875,-0.005 0.2050781,-0.005 0.300293,0 0.534668,0.0586 0.2368164,0.0562 0.4077148,0.15869 0.222168,0.13428 0.3466797,0.35645 0.1245117,0.21973 0.1245117,0.5542 z"
         style="font-style:normal;font-variant:normal;font-weight:bold;font-stretch:normal;font-size:5px;font-family:sans-serif;-inkscape-font-specification:'sans-serif Bold'"
         id="path4473" />
      <path
         d="m 13.474242,348.14404 -1.325683,3.63526 -1.049805,0 -1.3256837,-3.63526 0.9838867,0 0.878906,2.55371 0.878907,-2.55371 0.959472,0 z"
         style="font-style:normal;font-variant:normal;font-weight:bold;font-stretch:normal;font-size:5px;font-family:sans-serif;-inkscape-font-specification:'sans-serif Bold'"
         id="path4475" />
    </g>
    <g
       style="font-style:normal;font-weight:normal;font-size:25px;line-height:125%;font-family:sans-serif;letter-spacing:0px;word-spacing:0px;fill:#000000;fill-opacity:1;stroke:none;stroke-width:1px;stroke-linecap:butt;stroke-linejoin:miter;stroke-opacity:1"
       id="text4302">
      <path
         d="m 20.737812,349.95999 q 0,0.45899 -0.08301,0.82276 -0.08301,0.36132 -0.258789,0.59326 -0.180664,0.23681 -0.463867,0.35888 -0.283203,0.11963 -0.698242,0.11963 -0.407715,0 -0.695801,-0.12207 -0.288086,-0.12207 -0.466309,-0.36133 -0.180664,-0.23925 -0.26123,-0.59326 -0.08057,-0.35644 -0.08057,-0.81543 0,-0.47363 0.08301,-0.82275 0.08301,-0.34912 0.263672,-0.59082 0.180664,-0.23926 0.46875,-0.35889 0.288086,-0.11963 0.688477,-0.11963 0.41748,0 0.700683,0.12451 0.283204,0.12208 0.463868,0.36622 0.178222,0.23925 0.258789,0.59082 0.08057,0.34912 0.08057,0.8081 z m -0.944824,0 q 0,-0.65918 -0.129395,-0.9375 -0.129394,-0.28076 -0.429687,-0.28076 -0.300293,0 -0.429688,0.28076 -0.129394,0.27832 -0.129394,0.94238 0,0.64698 0.131836,0.93262 0.131836,0.28565 0.427246,0.28565 0.29541,0 0.427246,-0.28565 0.131836,-0.28564 0.131836,-0.9375 z"
         style="font-style:normal;font-variant:normal;font-weight:bold;font-stretch:normal;font-size:5px;font-family:sans-serif;-inkscape-font-specification:'sans-serif Bold'"
         id="path4466" />
      <path
         d="m 24.771015,348.14359 -1.325683,3.63525 -1.049805,0 -1.325684,-3.63525 0.983887,0 0.878906,2.55371 0.878907,-2.55371 0.959472,0 z"
         style="font-style:normal;font-variant:normal;font-weight:bold;font-stretch:normal;font-size:5px;font-family:sans-serif;-inkscape-font-specification:'sans-serif Bold'"
         id="path4468" />
    </g>
    <g
       style="font-style:normal;font-weight:normal;font-size:25px;line-height:125%;font-family:sans-serif;letter-spacing:0px;word-spacing:0px;fill:#000000;fill-opacity:1;stroke:none;stroke-width:1px;stroke-linecap:butt;stroke-linejoin:miter;stroke-opacity:1"
       id="text4306">
      <path
         d="m 31.462402,425.49026 -1.301269,0 0,1.28907 -0.668946,0 0,-1.28907 -1.301269,0 0,-0.65429 1.301269,0 0,-1.28906 0.668946,0 0,1.28906 1.301269,0 0,0.65429 z"
         style="font-style:normal;font-variant:normal;font-weight:bold;font-stretch:normal;font-size:5px;font-family:sans-serif;-inkscape-font-specification:'sans-serif Bold'"
         id="path4459" />
      <path
         d="m 35.222168,425.54886 q 0,0.2832 -0.107422,0.52734 -0.10498,0.2417 -0.307617,0.41504 -0.224609,0.18555 -0.517578,0.27588 -0.290528,0.0879 -0.664063,0.0879 -0.437011,-0.002 -0.739746,-0.0708 -0.300293,-0.0659 -0.490722,-0.14893 l 0,-0.80322 0.102539,0 q 0.222168,0.13184 0.478515,0.21973 0.256348,0.0879 0.510254,0.0879 0.153809,0 0.332031,-0.0342 0.180664,-0.0366 0.285645,-0.1294 0.08301,-0.0757 0.124512,-0.1538 0.04395,-0.0781 0.04395,-0.2417 0,-0.12696 -0.05859,-0.21729 -0.05615,-0.0928 -0.146484,-0.14892 -0.131836,-0.0806 -0.317383,-0.10498 -0.185547,-0.0269 -0.336914,-0.0269 -0.219727,0 -0.422363,0.0391 -0.200196,0.0366 -0.351563,0.0732 l -0.107422,0 0,-2.05078 2.585449,0 0,0.6958 -1.704101,0 0,0.59327 q 0.07568,-0.005 0.19043,-0.007 0.117187,-0.005 0.205078,-0.005 0.300293,0 0.534668,0.0586 0.236816,0.0562 0.407715,0.15869 0.222168,0.13428 0.346679,0.35645 0.124512,0.21973 0.124512,0.5542 z"
         style="font-style:normal;font-variant:normal;font-weight:bold;font-stretch:normal;font-size:5px;font-family:sans-serif;-inkscape-font-specification:'sans-serif Bold'"
         id="path4461" />
      <path
         d="m 39.309082,423.14407 -1.325684,3.63526 -1.049804,0 -1.325684,-3.63526 0.983887,0 0.878906,2.55371 0.878906,-2.55371 0.959473,0 z"
         style="font-style:normal;font-variant:normal;font-weight:bold;font-stretch:normal;font-size:5px;font-family:sans-serif;-inkscape-font-specification:'sans-serif Bold'"
         id="path4463" />
    </g>
    <g
       style="font-style:normal;font-weight:normal;font-size:25px;line-height:125%;font-family:sans-serif;letter-spacing:0px;word-spacing:0px;fill:#000000;fill-opacity:1;stroke:none;stroke-width:1px;stroke-linecap:butt;stroke-linejoin:miter;stroke-opacity:1"
       id="text4310">
      <path
         d="m 5.888793,425.51465 -1.862793,0 0,-0.70313 1.862793,0 0,0.70313 z"
         style="font-style:normal;font-variant:normal;font-weight:bold;font-stretch:normal;font-size:5px;font-family:sans-serif;-inkscape-font-specification:'sans-serif Bold'"
         id="path4452" />
      <path
         d="m 9.3873281,425.54883 q 0,0.2832 -0.1074218,0.52734 -0.1049805,0.2417 -0.3076172,0.41504 -0.2246094,0.18555 -0.5175781,0.27588 -0.2905274,0.0879 -0.6640625,0.0879 -0.4370118,-0.002 -0.7397461,-0.0708 -0.300293,-0.0659 -0.4907227,-0.14893 l 0,-0.80322 0.1025391,0 q 0.2221679,0.13184 0.4785156,0.21973 0.2563477,0.0879 0.5102539,0.0879 0.1538086,0 0.3320313,-0.0342 0.180664,-0.0366 0.2856445,-0.1294 0.083008,-0.0757 0.1245117,-0.1538 0.043945,-0.0781 0.043945,-0.2417 0,-0.12696 -0.058594,-0.21729 -0.056152,-0.0928 -0.1464844,-0.14892 -0.1318359,-0.0806 -0.3173828,-0.10499 -0.1855469,-0.0269 -0.3369141,-0.0269 -0.2197265,0 -0.4223633,0.0391 -0.2001953,0.0366 -0.3515625,0.0732 l -0.1074218,0 0,-2.05078 2.5854492,0 0,0.6958 -1.7041016,0 0,0.59327 q 0.075684,-0.005 0.1904297,-0.007 0.1171875,-0.005 0.2050781,-0.005 0.300293,0 0.534668,0.0586 0.2368164,0.0562 0.4077148,0.15869 0.222168,0.13428 0.3466797,0.35645 0.1245117,0.21973 0.1245117,0.5542 z"
         style="font-style:normal;font-variant:normal;font-weight:bold;font-stretch:normal;font-size:5px;font-family:sans-serif;-inkscape-font-specification:'sans-serif Bold'"
         id="path4454" />
      <path
         d="m 13.474242,423.14404 -1.325683,3.63526 -1.049805,0 -1.3256837,-3.63526 0.9838867,0 0.878906,2.55371 0.878907,-2.55371 0.959472,0 z"
         style="font-style:normal;font-variant:normal;font-weight:bold;font-stretch:normal;font-size:5px;font-family:sans-serif;-inkscape-font-specification:'sans-serif Bold'"
         id="path4456" />
    </g>
    <g
       style="font-style:normal;font-weight:normal;font-size:25px;line-height:125%;font-family:sans-serif;letter-spacing:0px;word-spacing:0px;fill:#000000;fill-opacity:1;stroke:none;stroke-width:1px;stroke-linecap:butt;stroke-linejoin:miter;stroke-opacity:1"
       id="text4314">
      <path
         d="m 20.737812,424.95999 q 0,0.45899 -0.08301,0.82276 -0.08301,0.36132 -0.258789,0.59326 -0.180664,0.23681 -0.463867,0.35888 -0.283203,0.11963 -0.698242,0.11963 -0.407715,0 -0.695801,-0.12207 -0.288086,-0.12207 -0.466309,-0.36133 -0.180664,-0.23925 -0.26123,-0.59326 -0.08057,-0.35644 -0.08057,-0.81543 0,-0.47363 0.08301,-0.82275 0.08301,-0.34912 0.263672,-0.59082 0.180664,-0.23926 0.46875,-0.35889 0.288086,-0.11963 0.688477,-0.11963 0.41748,0 0.700683,0.12451 0.283204,0.12208 0.463868,0.36622 0.178222,0.23925 0.258789,0.59082 0.08057,0.34912 0.08057,0.8081 z m -0.944824,0 q 0,-0.65918 -0.129395,-0.9375 -0.129394,-0.28076 -0.429687,-0.28076 -0.300293,0 -0.429688,0.28076 -0.129394,0.27832 -0.129394,0.94238 0,0.64698 0.131836,0.93262 0.131836,0.28565 0.427246,0.28565 0.29541,0 0.427246,-0.28565 0.131836,-0.28564 0.131836,-0.9375 z"
         style="font-style:normal;font-variant:normal;font-weight:bold;font-stretch:normal;font-size:5px;font-family:sans-serif;-inkscape-font-specification:'sans-serif Bold'"
         id="path4447" />
      <path
         d="m 24.771015,423.14359 -1.325683,3.63525 -1.049805,0 -1.325684,-3.63525 0.983887,0 0.878906,2.55371 0.878907,-2.55371 0.959472,0 z"
         style="font-style:normal;font-variant:normal;font-weight:bold;font-stretch:normal;font-size:5px;font-family:sans-serif;-inkscape-font-specification:'sans-serif Bold'"
         id="path4449" />
    </g>
    <g
       style="font-style:normal;font-weight:normal;font-size:25px;line-height:125%;font-family:sans-serif;letter-spacing:0px;word-spacing:0px;fill:#000000;fill-opacity:1;stroke:none;stroke-width:1px;stroke-linecap:butt;stroke-linejoin:miter;stroke-opacity:1"
       id="text4318">
      <path
         d="m 31.462402,500.49026 -1.301269,0 0,1.28907 -0.668946,0 0,-1.28907 -1.301269,0 0,-0.65429 1.301269,0 0,-1.28906 0.668946,0 0,1.28906 1.301269,0 0,0.65429 z"
         style="font-style:normal;font-variant:normal;font-weight:bold;font-stretch:normal;font-size:5px;font-family:sans-serif;-inkscape-font-specification:'sans-serif Bold'"
         id="path4440" />
      <path
         d="m 35.222168,500.54886 q 0,0.2832 -0.107422,0.52734 -0.10498,0.2417 -0.307617,0.41504 -0.224609,0.18555 -0.517578,0.27588 -0.290528,0.0879 -0.664063,0.0879 -0.437011,-0.002 -0.739746,-0.0708 -0.300293,-0.0659 -0.490722,-0.14893 l 0,-0.80322 0.102539,0 q 0.222168,0.13184 0.478515,0.21973 0.256348,0.0879 0.510254,0.0879 0.153809,0 0.332031,-0.0342 0.180664,-0.0366 0.285645,-0.1294 0.08301,-0.0757 0.124512,-0.1538 0.04395,-0.0781 0.04395,-0.2417 0,-0.12696 -0.05859,-0.21729 -0.05615,-0.0928 -0.146484,-0.14892 -0.131836,-0.0806 -0.317383,-0.10498 -0.185547,-0.0269 -0.336914,-0.0269 -0.219727,0 -0.422363,0.0391 -0.200196,0.0366 -0.351563,0.0732 l -0.107422,0 0,-2.05078 2.585449,0 0,0.6958 -1.704101,0 0,0.59327 q 0.07568,-0.005 0.19043,-0.007 0.117187,-0.005 0.205078,-0.005 0.300293,0 0.534668,0.0586 0.236816,0.0562 0.407715,0.15869 0.222168,0.13428 0.346679,0.35645 0.124512,0.21973 0.124512,0.5542 z"
         style="font-style:normal;font-variant:normal;font-weight:bold;font-stretch:normal;font-size:5px;font-family:sans-serif;-inkscape-font-specification:'sans-serif Bold'"
         id="path4442" />
      <path
         d="m 39.309082,498.14407 -1.325684,3.63526 -1.049804,0 -1.325684,-3.63526 0.983887,0 0.878906,2.55371 0.878906,-2.55371 0.959473,0 z"
         style="font-style:normal;font-variant:normal;font-weight:bold;font-stretch:normal;font-size:5px;font-family:sans-serif;-inkscape-font-specification:'sans-serif Bold'"
         id="path4444" />
    </g>
    <g
       style="font-style:normal;font-weight:normal;font-size:25px;line-height:125%;font-family:sans-serif;letter-spacing:0px;word-spacing:0px;fill:#000000;fill-opacity:1;stroke:none;stroke-width:1px;stroke-linecap:butt;stroke-linejoin:miter;stroke-opacity:1"
       id="text4322">
      <path
         d="m 5.888793,500.51465 -1.862793,0 0,-0.70313 1.862793,0 0,0.70313 z"
         style="font-style:normal;font-variant:normal;font-weight:bold;font-stretch:normal;font-size:5px;font-family:sans-serif;-inkscape-font-specification:'sans-serif Bold'"
         id="path4433" />
      <path
         d="m 9.3873281,500.54883 q 0,0.2832 -0.1074218,0.52734 -0.1049805,0.2417 -0.3076172,0.41504 -0.2246094,0.18555 -0.5175781,0.27588 -0.2905274,0.0879 -0.6640625,0.0879 -0.4370118,-0.002 -0.7397461,-0.0708 -0.300293,-0.0659 -0.4907227,-0.14893 l 0,-0.80322 0.1025391,0 q 0.2221679,0.13184 0.4785156,0.21973 0.2563477,0.0879 0.5102539,0.0879 0.1538086,0 0.3320313,-0.0342 0.180664,-0.0366 0.2856445,-0.1294 0.083008,-0.0757 0.1245117,-0.1538 0.043945,-0.0781 0.043945,-0.2417 0,-0.12696 -0.058594,-0.21729 -0.056152,-0.0928 -0.1464844,-0.14892 -0.1318359,-0.0806 -0.3173828,-0.10499 -0.1855469,-0.0269 -0.3369141,-0.0269 -0.2197265,0 -0.4223633,0.0391 -0.2001953,0.0366 -0.3515625,0.0732 l -0.1074218,0 0,-2.05078 2.5854492,0 0,0.6958 -1.7041016,0 0,0.59327 q 0.075684,-0.005 0.1904297,-0.007 0.1171875,-0.005 0.2050781,-0.005 0.300293,0 0.534668,0.0586 0.2368164,0.0562 0.4077148,0.15869 0.222168,0.13428 0.3466797,0.35645 0.1245117,0.21973 0.1245117,0.5542 z"
         style="font-style:normal;font-variant:normal;font-weight:bold;font-stretch:normal;font-size:5px;font-family:sans-serif;-inkscape-font-specification:'sans-serif Bold'"
         id="path4435" />
      <path
         d="m 13.474242,498.14404 -1.325683,3.63526 -1.049805,0 -1.3256837,-3.63526 0.9838867,0 0.878906,2.55371 0.878907,-2.55371 0.959472,0 z"
         style="font-style:normal;font-variant:normal;font-weight:bold;font-stretch:normal;font-size:5px;font-family:sans-serif;-inkscape-font-specification:'sans-serif Bold'"
         id="path4437" />
    </g>
    <g
       style="font-style:normal;font-weight:normal;font-size:25px;line-height:125%;font-family:sans-serif;letter-spacing:0px;word-spacing:0px;fill:#000000;fill-opacity:1;stroke:none;stroke-width:1px;stroke-linecap:butt;stroke-linejoin:miter;stroke-opacity:1"
       id="text4326">
      <path
         d="m 20.737812,499.95999 q 0,0.45899 -0.08301,0.82276 -0.08301,0.36132 -0.258789,0.59326 -0.180664,0.23681 -0.463867,0.35888 -0.283203,0.11963 -0.698242,0.11963 -0.407715,0 -0.695801,-0.12207 -0.288086,-0.12207 -0.466309,-0.36133 -0.180664,-0.23925 -0.26123,-0.59326 -0.08057,-0.35644 -0.08057,-0.81543 0,-0.47363 0.08301,-0.82275 0.08301,-0.34912 0.263672,-0.59082 0.180664,-0.23926 0.46875,-0.35889 0.288086,-0.11963 0.688477,-0.11963 0.41748,0 0.700683,0.12451 0.283204,0.12208 0.463868,0.36622 0.178222,0.23925 0.258789,0.59082 0.08057,0.34912 0.08057,0.8081 z m -0.944824,0 q 0,-0.65918 -0.129395,-0.9375 -0.129394,-0.28076 -0.429687,-0.28076 -0.300293,0 -0.429688,0.28076 -0.129394,0.27832 -0.129394,0.94238 0,0.64698 0.131836,0.93262 0.131836,0.28565 0.427246,0.28565 0.29541,0 0.427246,-0.28565 0.131836,-0.28564 0.131836,-0.9375 z"
         style="font-style:normal;font-variant:normal;font-weight:bold;font-stretch:normal;font-size:5px;font-family:sans-serif;-inkscape-font-specification:'sans-serif Bold'"
         id="path4428" />
      <path
         d="m 24.771015,498.14359 -1.325683,3.63525 -1.049805,0 -1.325684,-3.63525 0.983887,0 0.878906,2.55371 0.878907,-2.55371 0.959472,0 z"
         style="font-style:normal;font-variant:normal;font-weight:bold;font-stretch:normal;font-size:5px;font-family:sans-serif;-inkscape-font-specification:'sans-serif Bold'"
         id="path4430" />
    </g>
  </g>
</svg>
