<?xml version="1.0" encoding="UTF-8" standalone="no"?>
<!-- Created with Inkscape (http://www.inkscape.org/) -->

<svg
   xmlns:dc="http://purl.org/dc/elements/1.1/"
   xmlns:cc="http://creativecommons.org/ns#"
   xmlns:rdf="http://www.w3.org/1999/02/22-rdf-syntax-ns#"
   xmlns:svg="http://www.w3.org/2000/svg"
   xmlns="http://www.w3.org/2000/svg"
   xmlns:sodipodi="http://sodipodi.sourceforge.net/DTD/sodipodi-0.dtd"
   xmlns:inkscape="http://www.inkscape.org/namespaces/inkscape"
   width="210mm"
   height="297mm"
   viewBox="0 0 744.09448819 1052.3622047"
   id="svg7999"
   version="1.1"
   inkscape:version="0.91 r13725"
   sodipodi:docname="audio-out-laser.svg">
  <defs
     id="defs8001" />
  <sodipodi:namedview
     id="base"
     pagecolor="#ffffff"
     bordercolor="#666666"
     borderopacity="1.0"
     inkscape:pageopacity="0.0"
     inkscape:pageshadow="2"
     inkscape:zoom="1.4"
     inkscape:cx="228.23875"
     inkscape:cy="876.75382"
     inkscape:document-units="mm"
     inkscape:current-layer="layer1"
     showgrid="false"
     inkscape:window-width="1920"
     inkscape:window-height="1027"
     inkscape:window-x="-8"
     inkscape:window-y="-8"
     inkscape:window-maximized="1" />
  <metadata
     id="metadata8004">
    <rdf:RDF>
      <cc:Work
         rdf:about="">
        <dc:format>image/svg+xml</dc:format>
        <dc:type
           rdf:resource="http://purl.org/dc/dcmitype/StillImage" />
        <dc:title></dc:title>
      </cc:Work>
    </rdf:RDF>
  </metadata>
  <g
     inkscape:label="Layer 1"
     inkscape:groupmode="layer"
     id="layer1">
    <flowRoot
       xml:space="preserve"
       id="flowRoot10029"
       style="font-style:normal;font-weight:normal;font-size:17.5px;line-height:125%;font-family:sans-serif;letter-spacing:0px;word-spacing:0px;fill:#000000;fill-opacity:1;stroke:none;stroke-width:1px;stroke-linecap:butt;stroke-linejoin:miter;stroke-opacity:1"><flowRegion
         id="flowRegion10031"><rect
           id="rect10033"
           width="60"
           height="19.285715"
           x="46.07143"
           y="215.21935" /></flowRegion><flowPara
         id="flowPara10035">LEFTLE</flowPara></flowRoot>    <rect
       style="opacity:1;fill:none;fill-opacity:0.17391304;stroke:#00ff00;stroke-width:0.08858268;stroke-linejoin:round;stroke-miterlimit:4;stroke-dasharray:none;stroke-dashoffset:0;stroke-opacity:1"
       id="rect9213"
       width="143.91142"
       height="472.41144"
       x="-145.60141"
       y="1.8159448"
       transform="matrix(0,-1,1,0,0,0)" />
    <g
       id="g9929"
       transform="matrix(0,-1,1,0,-208.90077,143.34724)">
      <circle
         r="20.949594"
         style="display:inline;opacity:1;fill:none;fill-opacity:0.2857143;stroke:#00ff00;stroke-width:0.089;stroke-linejoin:round;stroke-miterlimit:4;stroke-dasharray:none;stroke-opacity:1"
         id="circle9925"
         cx="69.231834"
         cy="578.1048" />
    </g>
    <g
       transform="matrix(0,-1,1,0,5.122362,175.94674)"
       id="g6382">
      <circle
         r="13.446851"
         cy="78.611977"
         cx="71.98214"
         id="circle5528"
         style="display:inline;opacity:1;fill:none;fill-opacity:0.2857143;stroke:#00ff00;stroke-width:0.089;stroke-linejoin:round;stroke-miterlimit:4;stroke-dasharray:none;stroke-opacity:1" />
    </g>
    <g
       id="g9991"
       transform="matrix(0,-1,1,0,5.122362,115.30894)">
      <circle
         style="display:inline;opacity:1;fill:none;fill-opacity:0.2857143;stroke:#00ff00;stroke-width:0.089;stroke-linejoin:round;stroke-miterlimit:4;stroke-dasharray:none;stroke-opacity:1"
         id="circle9995"
         cx="71.98214"
         cy="78.611977"
         r="13.446851" />
    </g>
    <g
       id="g9999"
       transform="matrix(0,-1,1,0,63.122362,175.94674)">
      <circle
         style="display:inline;opacity:1;fill:none;fill-opacity:0.2857143;stroke:#00ff00;stroke-width:0.089;stroke-linejoin:round;stroke-miterlimit:4;stroke-dasharray:none;stroke-opacity:1"
         id="circle10003"
         cx="71.98214"
         cy="78.611977"
         r="13.446851" />
    </g>
    <g
       transform="matrix(0,-1,1,0,63.122362,115.30894)"
       id="g10005">
      <circle
         r="13.446851"
         cy="78.611977"
         cx="71.98214"
         id="circle10009"
         style="display:inline;opacity:1;fill:none;fill-opacity:0.2857143;stroke:#00ff00;stroke-width:0.089;stroke-linejoin:round;stroke-miterlimit:4;stroke-dasharray:none;stroke-opacity:1" />
    </g>
    <g
       transform="matrix(0,-1,1,0,-300.90077,176.32362)"
       id="g10011">
      <circle
         cy="578.1048"
         cx="69.231834"
         id="circle10015"
         style="display:inline;opacity:1;fill:none;fill-opacity:0.2857143;stroke:#00ff00;stroke-width:0.089;stroke-linejoin:round;stroke-miterlimit:4;stroke-dasharray:none;stroke-opacity:1"
         r="20.949594" />
    </g>
    <g
       id="g10017"
       transform="matrix(0,-1,1,0,-300.90077,110.37086)">
      <circle
         r="20.949594"
         style="display:inline;opacity:1;fill:none;fill-opacity:0.2857143;stroke:#00ff00;stroke-width:0.089;stroke-linejoin:round;stroke-miterlimit:4;stroke-dasharray:none;stroke-opacity:1"
         id="circle10021"
         cx="69.231834"
         cy="578.1048" />
    </g>
    <rect
       style="opacity:1;fill:#000000;fill-opacity:1;stroke:none;stroke-width:0.08858268;stroke-linejoin:round;stroke-miterlimit:4;stroke-dasharray:none;stroke-dashoffset:0;stroke-opacity:1"
       id="rect10025"
       width="1.7716535"
       height="25.425325"
       x="-104.85043"
       y="100.02168"
       transform="matrix(0,-1,1,0,0,0)" />
    <rect
       y="100.02168"
       x="-44.212627"
       height="25.425325"
       width="1.7716535"
       id="rect10027"
       style="opacity:1;fill:#000000;fill-opacity:1;stroke:none;stroke-width:0.08858268;stroke-linejoin:round;stroke-miterlimit:4;stroke-dasharray:none;stroke-dashoffset:0;stroke-opacity:1"
       transform="matrix(0,-1,1,0,0,0)" />
    <g
       transform="matrix(0,-1,1,0,0,0)"
       style="font-style:normal;font-weight:normal;font-size:17.5px;line-height:125%;font-family:sans-serif;letter-spacing:0px;word-spacing:0px;fill:#000000;fill-opacity:1;stroke:none;stroke-width:1px;stroke-linecap:butt;stroke-linejoin:miter;stroke-opacity:1"
       id="text10037">
      <path
         d="m -114.3894,181.09151 -6.78467,0 0,-12.25342 2.03369,0 0,10.53589 4.75098,0 0,1.71753 z"
         style="font-style:normal;font-variant:normal;font-weight:600;font-stretch:normal;font-family:'Segoe UI';-inkscape-font-specification:'Segoe UI Semi-Bold'"
         id="path10208" />
      <path
         d="m -105.75049,181.09151 -6.87866,0 0,-12.25342 6.60522,0 0,1.72607 -4.57153,0 0,3.46924 4.21265,0 0,1.71753 -4.21265,0 0,3.62305 4.84497,0 0,1.71753 z"
         style="font-style:normal;font-variant:normal;font-weight:600;font-stretch:normal;font-family:'Segoe UI';-inkscape-font-specification:'Segoe UI Semi-Bold'"
         id="path10210" />
      <path
         d="m -96.957764,170.56416 -4.580076,0 0,3.68286 4.22119,0 0,1.71753 -4.22119,0 0,5.12696 -2.03369,0 0,-12.25342 6.613766,0 0,1.72607 z"
         style="font-style:normal;font-variant:normal;font-weight:600;font-stretch:normal;font-family:'Segoe UI';-inkscape-font-specification:'Segoe UI Semi-Bold'"
         id="path10212" />
      <path
         d="m -86.755127,170.56416 -3.520508,0 0,10.52735 -2.033691,0 0,-10.52735 -3.511963,0 0,-1.72607 9.066162,0 0,1.72607 z"
         style="font-style:normal;font-variant:normal;font-weight:600;font-stretch:normal;font-family:'Segoe UI';-inkscape-font-specification:'Segoe UI Semi-Bold'"
         id="path10214" />
    </g>
    <g
       transform="matrix(0,-1,1,0,0,0)"
       style="font-style:normal;font-weight:normal;font-size:17.5px;line-height:125%;font-family:sans-serif;letter-spacing:0px;word-spacing:0px;fill:#000000;fill-opacity:1;stroke:none;stroke-width:1px;stroke-linecap:butt;stroke-linejoin:miter;stroke-opacity:1"
       id="text10041">
      <path
         d="m -58.331688,181.09151 -2.375488,0 -1.956787,-3.28125 q -0.264893,-0.45288 -0.521241,-0.76905 -0.247802,-0.3247 -0.512695,-0.52978 -0.256348,-0.20508 -0.563965,-0.29907 -0.307617,-0.094 -0.692138,-0.094 l -0.820313,0 0,4.97315 -2.025146,0 0,-12.25342 4.033203,0 q 0.863037,0 1.589355,0.20508 0.726319,0.20508 1.264649,0.62378 0.53833,0.41015 0.837402,1.03393 0.307617,0.61524 0.307617,1.44409 0,0.64942 -0.196533,1.19629 -0.187988,0.53833 -0.546875,0.96558 -0.350342,0.4187 -0.854492,0.71777 -0.495606,0.29907 -1.119385,0.46143 l 0,0.0342 q 0.333252,0.18799 0.581055,0.4187 0.247802,0.22217 0.46997,0.46142 0.222168,0.23926 0.435791,0.54688 0.222168,0.29907 0.487061,0.70068 l 2.178955,3.44361 z m -7.442627,-10.60425 0,3.98193 1.691895,0 q 0.46997,0 0.863037,-0.14526 0.401611,-0.14526 0.692138,-0.4187 0.290528,-0.27344 0.452881,-0.66651 0.162354,-0.39306 0.162354,-0.88012 0,-0.88013 -0.55542,-1.37574 -0.55542,-0.4956 -1.597901,-0.4956 l -1.708984,0 z"
         style="font-style:normal;font-variant:normal;font-weight:600;font-stretch:normal;font-family:'Segoe UI';-inkscape-font-specification:'Segoe UI Semi-Bold'"
         id="path10197" />
      <path
         d="m -54.81118,181.09151 -2.093506,0 0,-12.25342 2.093506,0 0,12.25342 z"
         style="font-style:normal;font-variant:normal;font-weight:600;font-stretch:normal;font-family:'Segoe UI';-inkscape-font-specification:'Segoe UI Semi-Bold'"
         id="path10199" />
      <path
         d="m -42.2416,180.2541 q -1.914063,1.04249 -4.263916,1.04249 -2.717285,0 -4.400635,-1.6919 -1.683349,-1.69189 -1.683349,-4.47754 0,-2.84546 1.837158,-4.66553 1.845703,-1.82861 4.682617,-1.82861 2.042236,0 3.435059,0.59815 l 0,2.0935 q -1.409913,-0.93994 -3.358155,-0.93994 -1.956787,0 -3.21289,1.29028 -1.247559,1.29029 -1.247559,3.34107 0,2.11059 1.07666,3.32397 1.07666,1.20484 2.922363,1.20484 1.264649,0 2.1875,-0.48706 l 0,-2.91382 -2.580566,0 0,-1.70899 4.605713,0 0,5.81909 z"
         style="font-style:normal;font-variant:normal;font-weight:600;font-stretch:normal;font-family:'Segoe UI';-inkscape-font-specification:'Segoe UI Semi-Bold'"
         id="path10201" />
      <path
         d="m -29.757469,181.09151 -2.042237,0 0,-5.31494 -5.767822,0 0,5.31494 -2.033691,0 0,-12.25342 2.033691,0 0,5.15259 5.767822,0 0,-5.15259 2.042237,0 0,12.25342 z"
         style="font-style:normal;font-variant:normal;font-weight:600;font-stretch:normal;font-family:'Segoe UI';-inkscape-font-specification:'Segoe UI Semi-Bold'"
         id="path10203" />
      <path
         d="m -18.854149,170.56416 -3.520508,0 0,10.52735 -2.033691,0 0,-10.52735 -3.511963,0 0,-1.72607 9.066162,0 0,1.72607 z"
         style="font-style:normal;font-variant:normal;font-weight:600;font-stretch:normal;font-family:'Segoe UI';-inkscape-font-specification:'Segoe UI Semi-Bold'"
         id="path10205" />
    </g>
    <g
       transform="matrix(0,-1,1,0,0,0)"
       style="font-style:normal;font-weight:normal;font-size:17.5px;line-height:125%;font-family:sans-serif;letter-spacing:0px;word-spacing:0px;fill:#000000;fill-opacity:1;stroke:none;stroke-width:1px;stroke-linecap:butt;stroke-linejoin:miter;stroke-opacity:1"
       id="text10045">
      <path
         d="m -114.3894,325.09152 -6.78467,0 0,-12.25342 2.03369,0 0,10.53589 4.75098,0 0,1.71753 z"
         style="font-style:normal;font-variant:normal;font-weight:600;font-stretch:normal;font-family:'Segoe UI';-inkscape-font-specification:'Segoe UI Semi-Bold'"
         id="path10228" />
      <path
         d="m -105.75049,325.09152 -6.87866,0 0,-12.25342 6.60522,0 0,1.72608 -4.57153,0 0,3.46924 4.21265,0 0,1.71753 -4.21265,0 0,3.62304 4.84497,0 0,1.71753 z"
         style="font-style:normal;font-variant:normal;font-weight:600;font-stretch:normal;font-family:'Segoe UI';-inkscape-font-specification:'Segoe UI Semi-Bold'"
         id="path10230" />
      <path
         d="m -96.957764,314.56418 -4.580076,0 0,3.68286 4.22119,0 0,1.71753 -4.22119,0 0,5.12695 -2.03369,0 0,-12.25342 6.613766,0 0,1.72608 z"
         style="font-style:normal;font-variant:normal;font-weight:600;font-stretch:normal;font-family:'Segoe UI';-inkscape-font-specification:'Segoe UI Semi-Bold'"
         id="path10232" />
      <path
         d="m -86.755127,314.56418 -3.520508,0 0,10.52734 -2.033691,0 0,-10.52734 -3.511963,0 0,-1.72608 9.066162,0 0,1.72608 z"
         style="font-style:normal;font-variant:normal;font-weight:600;font-stretch:normal;font-family:'Segoe UI';-inkscape-font-specification:'Segoe UI Semi-Bold'"
         id="path10234" />
    </g>
    <g
       transform="matrix(0,-1,1,0,0,0)"
       style="font-style:normal;font-weight:normal;font-size:17.5px;line-height:125%;font-family:sans-serif;letter-spacing:0px;word-spacing:0px;fill:#000000;fill-opacity:1;stroke:none;stroke-width:1px;stroke-linecap:butt;stroke-linejoin:miter;stroke-opacity:1"
       id="text10049">
      <path
         d="m -58.331688,325.09152 -2.375488,0 -1.956787,-3.28125 q -0.264893,-0.45288 -0.521241,-0.76904 -0.247802,-0.32471 -0.512695,-0.52979 -0.256348,-0.20507 -0.563965,-0.29907 -0.307617,-0.094 -0.692138,-0.094 l -0.820313,0 0,4.97314 -2.025146,0 0,-12.25342 4.033203,0 q 0.863037,0 1.589355,0.20508 0.726319,0.20508 1.264649,0.62378 0.53833,0.41016 0.837402,1.03394 0.307617,0.61523 0.307617,1.44409 0,0.64941 -0.196533,1.19629 -0.187988,0.53833 -0.546875,0.96557 -0.350342,0.41871 -0.854492,0.71778 -0.495606,0.29907 -1.119385,0.46142 l 0,0.0342 q 0.333252,0.18799 0.581055,0.4187 0.247802,0.22217 0.46997,0.46143 0.222168,0.23926 0.435791,0.54688 0.222168,0.29907 0.487061,0.70068 l 2.178955,3.4436 z m -7.442627,-10.60425 0,3.98194 1.691895,0 q 0.46997,0 0.863037,-0.14527 0.401611,-0.14526 0.692138,-0.4187 0.290528,-0.27343 0.452881,-0.6665 0.162354,-0.39307 0.162354,-0.88013 0,-0.88012 -0.55542,-1.37573 -0.55542,-0.49561 -1.597901,-0.49561 l -1.708984,0 z"
         style="font-style:normal;font-variant:normal;font-weight:600;font-stretch:normal;font-family:'Segoe UI';-inkscape-font-specification:'Segoe UI Semi-Bold'"
         id="path10217" />
      <path
         d="m -54.81118,325.09152 -2.093506,0 0,-12.25342 2.093506,0 0,12.25342 z"
         style="font-style:normal;font-variant:normal;font-weight:600;font-stretch:normal;font-family:'Segoe UI';-inkscape-font-specification:'Segoe UI Semi-Bold'"
         id="path10219" />
      <path
         d="m -42.2416,324.25412 q -1.914063,1.04248 -4.263916,1.04248 -2.717285,0 -4.400635,-1.69189 -1.683349,-1.6919 -1.683349,-4.47754 0,-2.84546 1.837158,-4.66553 1.845703,-1.82861 4.682617,-1.82861 2.042236,0 3.435059,0.59814 l 0,2.09351 q -1.409913,-0.93994 -3.358155,-0.93994 -1.956787,0 -3.21289,1.29028 -1.247559,1.29028 -1.247559,3.34106 0,2.1106 1.07666,3.32398 1.07666,1.20483 2.922363,1.20483 1.264649,0 2.1875,-0.48706 l 0,-2.91382 -2.580566,0 0,-1.70898 4.605713,0 0,5.81909 z"
         style="font-style:normal;font-variant:normal;font-weight:600;font-stretch:normal;font-family:'Segoe UI';-inkscape-font-specification:'Segoe UI Semi-Bold'"
         id="path10221" />
      <path
         d="m -29.757469,325.09152 -2.042237,0 0,-5.31494 -5.767822,0 0,5.31494 -2.033691,0 0,-12.25342 2.033691,0 0,5.15259 5.767822,0 0,-5.15259 2.042237,0 0,12.25342 z"
         style="font-style:normal;font-variant:normal;font-weight:600;font-stretch:normal;font-family:'Segoe UI';-inkscape-font-specification:'Segoe UI Semi-Bold'"
         id="path10223" />
      <path
         d="m -18.854149,314.56418 -3.520508,0 0,10.52734 -2.033691,0 0,-10.52734 -3.511963,0 0,-1.72608 9.066162,0 0,1.72608 z"
         style="font-style:normal;font-variant:normal;font-weight:600;font-stretch:normal;font-family:'Segoe UI';-inkscape-font-specification:'Segoe UI Semi-Bold'"
         id="path10225" />
    </g>
    <g
       transform="matrix(0,-1,1,0,0,0)"
       style="font-style:normal;font-weight:normal;font-size:17.5px;line-height:125%;font-family:sans-serif;letter-spacing:0px;word-spacing:0px;fill:#000000;fill-opacity:1;stroke:none;stroke-width:1px;stroke-linecap:butt;stroke-linejoin:miter;stroke-opacity:1"
       id="text10053">
      <path
         d="m -103.52729,416.60446 0,-2.0935 q 0.28198,0.25634 0.6665,0.46142 0.39307,0.20508 0.82886,0.35034 0.43579,0.13672 0.87158,0.21363 0.43579,0.0769 0.80323,0.0769 1.281734,0 1.905513,-0.42725 0.632324,-0.42724 0.632324,-1.23901 0,-0.43579 -0.213623,-0.75195 -0.205078,-0.32471 -0.581054,-0.5896 -0.375977,-0.26489 -0.888672,-0.50415 -0.504148,-0.2478 -1.085208,-0.5127 -0.62378,-0.33325 -1.16211,-0.67505 -0.53833,-0.34179 -0.93994,-0.75195 -0.39306,-0.4187 -0.62378,-0.93994 -0.22217,-0.52124 -0.22217,-1.22192 0,-0.86304 0.38453,-1.49537 0.39306,-0.64087 1.02539,-1.05102 0.64087,-0.4187 1.45263,-0.61524 0.811771,-0.20507 1.657718,-0.20507 1.922608,0 2.802735,0.43579 l 0,2.00805 q -1.042481,-0.75195 -2.683106,-0.75195 -0.452881,0 -0.905761,0.0854 -0.444336,0.0854 -0.803226,0.28198 -0.35034,0.19654 -0.57251,0.50415 -0.22216,0.30762 -0.22216,0.74341 0,0.41016 0.17089,0.70923 0.1709,0.29907 0.49561,0.54687 0.33325,0.24781 0.803222,0.48706 0.478515,0.23072 1.102295,0.50416 0.640869,0.33325 1.204834,0.70068 0.572509,0.36743 0.999756,0.81177 0.435791,0.44433 0.683593,0.99121 0.256348,0.53833 0.256348,1.23047 0,0.93139 -0.375977,1.57226 -0.375976,0.64087 -1.016845,1.04248 -0.632325,0.40161 -1.461182,0.58106 -0.828857,0.17944 -1.751704,0.17944 -0.30762,0 -0.7605,-0.0513 -0.44434,-0.0427 -0.91431,-0.13672 -0.46997,-0.0854 -0.88867,-0.21362 -0.4187,-0.12817 -0.67505,-0.29053 z"
         style="font-style:normal;font-variant:normal;font-weight:600;font-stretch:normal;font-family:'Segoe UI';-inkscape-font-specification:'Segoe UI Semi-Bold'"
         id="path10237" />
      <path
         d="m -85.565865,406.56418 -3.520507,0 0,10.52734 -2.033692,0 0,-10.52734 -3.511963,0 0,-1.72608 9.066162,0 0,1.72608 z"
         style="font-style:normal;font-variant:normal;font-weight:600;font-stretch:normal;font-family:'Segoe UI';-inkscape-font-specification:'Segoe UI Semi-Bold'"
         id="path10239" />
      <path
         d="m -76.875679,417.09152 -6.878662,0 0,-12.25342 6.605224,0 0,1.72608 -4.571533,0 0,3.46924 4.212647,0 0,1.71753 -4.212647,0 0,3.62304 4.844971,0 0,1.71753 z"
         style="font-style:normal;font-variant:normal;font-weight:600;font-stretch:normal;font-family:'Segoe UI';-inkscape-font-specification:'Segoe UI Semi-Bold'"
         id="path10241" />
      <path
         d="m -65.228951,417.09152 -2.375488,0 -1.956787,-3.28125 q -0.264892,-0.45288 -0.52124,-0.76904 -0.247803,-0.32471 -0.512695,-0.52979 -0.256348,-0.20507 -0.563965,-0.29907 -0.307617,-0.094 -0.692139,-0.094 l -0.820312,0 0,4.97314 -2.025147,0 0,-12.25342 4.033203,0 q 0.863037,0 1.589356,0.20508 0.726318,0.20508 1.264648,0.62378 0.53833,0.41016 0.837402,1.03394 0.307618,0.61523 0.307618,1.44409 0,0.64941 -0.196534,1.19629 -0.187988,0.53833 -0.546875,0.96557 -0.350341,0.41871 -0.854492,0.71778 -0.495605,0.29907 -1.119385,0.46142 l 0,0.0342 q 0.333252,0.18799 0.581055,0.4187 0.247803,0.22217 0.469971,0.46143 0.222168,0.23926 0.435791,0.54688 0.222168,0.29907 0.48706,0.70068 l 2.178955,3.4436 z m -7.442626,-10.60425 0,3.98194 1.691894,0 q 0.469971,0 0.863037,-0.14527 0.401612,-0.14526 0.692139,-0.4187 0.290527,-0.27343 0.452881,-0.6665 0.162353,-0.39307 0.162353,-0.88013 0,-0.88012 -0.55542,-1.37573 -0.55542,-0.49561 -1.5979,-0.49561 l -1.708984,0 z"
         style="font-style:normal;font-variant:normal;font-weight:600;font-stretch:normal;font-family:'Segoe UI';-inkscape-font-specification:'Segoe UI Semi-Bold'"
         id="path10243" />
      <path
         d="m -56.914742,417.09152 -6.878662,0 0,-12.25342 6.605225,0 0,1.72608 -4.571533,0 0,3.46924 4.212646,0 0,1.71753 -4.212646,0 0,3.62304 4.84497,0 0,1.71753 z"
         style="font-style:normal;font-variant:normal;font-weight:600;font-stretch:normal;font-family:'Segoe UI';-inkscape-font-specification:'Segoe UI Semi-Bold'"
         id="path10245" />
      <path
         d="m -49.685738,417.2966 q -2.648925,0 -4.246826,-1.71753 -1.589355,-1.71753 -1.589355,-4.46899 0,-2.95655 1.623535,-4.7168 1.623535,-1.76025 4.40918,-1.76025 2.580566,0 4.152832,1.70898 1.58081,1.70898 1.58081,4.46899 0,2.99927 -1.61499,4.74244 -1.61499,1.74316 -4.315186,1.74316 z m 0.09399,-10.87769 q -1.68335,0 -2.74292,1.25611 -1.051026,1.2561 -1.051026,3.30688 0,2.04224 1.025391,3.2898 1.02539,1.24756 2.683105,1.24756 1.760254,0 2.7771,-1.18775 1.016846,-1.18774 1.016846,-3.32397 0,-2.19605 -0.991211,-3.39234 -0.982666,-1.19629 -2.717285,-1.19629 z"
         style="font-style:normal;font-variant:normal;font-weight:600;font-stretch:normal;font-family:'Segoe UI';-inkscape-font-specification:'Segoe UI Semi-Bold'"
         id="path10247" />
    </g>
    <g
       id="g10074"
       transform="matrix(0,-1,1,0,-48.627838,172.21713)">
      <circle
         style="display:inline;opacity:1;fill:none;fill-opacity:0.2857143;stroke:#00ff00;stroke-width:0.08858268;stroke-linejoin:round;stroke-miterlimit:4;stroke-dasharray:none;stroke-opacity:1"
         id="circle5240"
         cx="53.57143"
         cy="72.897919"
         r="6.1830711" />
      <circle
         r="6.1830711"
         cy="72.897919"
         cx="143.57143"
         id="circle10072"
         style="display:inline;opacity:1;fill:none;fill-opacity:0.2857143;stroke:#00ff00;stroke-width:0.08858268;stroke-linejoin:round;stroke-miterlimit:4;stroke-dasharray:none;stroke-opacity:1" />
    </g>
    <g
       id="g10078"
       transform="matrix(0,-1,1,0,378.87217,172.21713)">
      <circle
         r="6.1830711"
         cy="72.897919"
         cx="53.57143"
         id="circle10080"
         style="display:inline;opacity:1;fill:none;fill-opacity:0.2857143;stroke:#00ff00;stroke-width:0.08858268;stroke-linejoin:round;stroke-miterlimit:4;stroke-dasharray:none;stroke-opacity:1" />
      <circle
         style="display:inline;opacity:1;fill:none;fill-opacity:0.2857143;stroke:#00ff00;stroke-width:0.08858268;stroke-linejoin:round;stroke-miterlimit:4;stroke-dasharray:none;stroke-opacity:1"
         id="circle10082"
         cx="143.57143"
         cy="72.897919"
         r="6.1830711" />
    </g>
    <g
       transform="matrix(0,-1,1,0,-116.92574,336.76454)"
       style="font-style:normal;font-variant:normal;font-weight:600;font-stretch:normal;font-size:16.25px;line-height:100%;font-family:'Segoe UI';-inkscape-font-specification:'Segoe UI Semi-Bold';text-align:center;letter-spacing:0px;word-spacing:0px;text-anchor:middle;fill:#000000;fill-opacity:1;stroke:none;stroke-width:1px;stroke-linecap:butt;stroke-linejoin:miter;stroke-opacity:1"
       id="flowRoot10084">
      <path
         d="m 248.76917,138.75991 -2.07093,0 -1.02356,-2.89612 -4.4751,0 -0.98388,2.89612 -2.06299,0 4.26086,-11.37817 2.12647,0 4.22913,11.37817 z m -3.59437,-4.43543 -1.57897,-4.53857 q -0.0714,-0.22217 -0.15076,-0.71411 l -0.0317,0 q -0.0714,0.45227 -0.15869,0.71411 l -1.56311,4.53857 3.48327,0 z"
         style=""
         id="path10180" />
      <path
         d="m 258.83813,134.15786 q 0,4.79248 -4.53857,4.79248 -4.34814,0 -4.34814,-4.60999 l 0,-6.95861 1.88842,0 0,6.56982 q 0,3.34839 2.60254,3.34839 2.50733,0 2.50733,-3.22937 l 0,-6.68884 1.88842,0 0,6.77612 z"
         style=""
         id="path10182" />
      <path
         d="m 261.51208,138.75991 0,-11.37817 3.28492,0 q 6.29211,0 6.29211,5.54626 0,2.63428 -1.7456,4.23706 -1.74561,1.59485 -4.6814,1.59485 l -3.15003,0 z m 1.8805,-9.77539 0,8.18054 1.50757,0 q 1.99157,0 3.09448,-1.09497 1.11084,-1.09497 1.11084,-3.09448 0,-3.99109 -4.13391,-3.99109 l -1.57898,0 z"
         style=""
         id="path10184" />
      <path
         d="m 275.09607,138.75991 -1.94397,0 0,-11.37817 1.94397,0 0,11.37817 z"
         style=""
         id="path10186" />
      <path
         d="m 282.57837,138.95034 q -2.45972,0 -3.94348,-1.59485 -1.47583,-1.59485 -1.47583,-4.14978 0,-2.74536 1.50757,-4.37988 1.50756,-1.63452 4.09423,-1.63452 2.39624,0 3.85621,1.58691 1.46789,1.58691 1.46789,4.14978 0,2.78503 -1.49963,4.40369 -1.49964,1.61865 -4.00696,1.61865 z m 0.0873,-10.10071 q -1.56311,0 -2.547,1.16638 -0.97595,1.16638 -0.97595,3.07068 0,1.89636 0.95215,3.05481 0.95215,1.15845 2.49145,1.15845 1.63453,0 2.57874,-1.10291 0.94421,-1.1029 0.94421,-3.08655 0,-2.03918 -0.92041,-3.15002 -0.91247,-1.11084 -2.52319,-1.11084 z"
         style=""
         id="path10188" />
      <path
         d="m 253.14111,155.20034 q -2.45971,0 -3.94348,-1.59485 -1.47583,-1.59485 -1.47583,-4.14978 0,-2.74536 1.50757,-4.37988 1.50757,-1.63452 4.09424,-1.63452 2.39624,0 3.8562,1.58691 1.4679,1.58691 1.4679,4.14978 0,2.78503 -1.49964,4.40369 -1.49963,1.61865 -4.00696,1.61865 z m 0.0873,-10.10071 q -1.56311,0 -2.54699,1.16638 -0.97596,1.16638 -0.97596,3.07068 0,1.89636 0.95215,3.05481 0.95215,1.15845 2.49146,1.15845 1.63452,0 2.57873,-1.10291 0.94422,-1.1029 0.94422,-3.08655 0,-2.03918 -0.92041,-3.15002 -0.91248,-1.11084 -2.5232,-1.11084 z"
         style=""
         id="path10190" />
      <path
         d="m 269.48633,150.40786 q 0,4.79248 -4.53858,4.79248 -4.34814,0 -4.34814,-4.60999 l 0,-6.95861 1.88843,0 0,6.56982 q 0,3.34839 2.60254,3.34839 2.50732,0 2.50732,-3.22937 l 0,-6.68884 1.88843,0 0,6.77612 z"
         style=""
         id="path10192" />
      <path
         d="m 279.46008,145.23452 -3.26904,0 0,9.77539 -1.88843,0 0,-9.77539 -3.26111,0 0,-1.60278 8.41858,0 0,1.60278 z"
         style=""
         id="path10194" />
    </g>
  </g>
</svg>
