solid arrow-button-cap-scale-x10
facet normal 0.0 0.0 -1.0
  outer loop
    vertex 94.99999999999999 0.0 0.0
    vertex 0.0 0.0 0.0
    vertex 47.49999999999999 63.29999999999998 0.0
  endloop
endfacet
facet normal -0.0 -0.0 1.0
  outer loop
    vertex 0.0 0.0 60.0
    vertex 29.53336667856319 19.327274711759397 60.0
    vertex 29.004114565569022 24.12765637429666 60.0
  endloop
endfacet
facet normal -0.0 -0.0 1.0
  outer loop
    vertex 29.53336667856319 19.327274711759397 60.0
    vertex 0.0 0.0 60.0
    vertex 31.28701516114786 14.827442614373851 60.0
  endloop
endfacet
facet normal -0.0 -0.0 1.0
  outer loop
    vertex 31.28701516114786 14.827442614373851 60.0
    vertex 0.0 0.0 60.0
    vertex 34.14555176727603 10.934816203252693 60.0
  endloop
endfacet
facet normal -0.0 -0.0 1.0
  outer loop
    vertex 34.14555176727603 10.934816203252693 60.0
    vertex 0.0 0.0 60.0
    vertex 37.914171951195165 7.914671535444526 60.0
  endloop
endfacet
facet normal -0.0 -0.0 1.0
  outer loop
    vertex 37.914171951195165 7.914671535444526 60.0
    vertex 0.0 0.0 60.0
    vertex 42.336050475310486 5.972826479035443 60.0
  endloop
endfacet
facet normal -0.0 -0.0 1.0
  outer loop
    vertex 42.336050475310486 5.972826479035443 60.0
    vertex 0.0 0.0 60.0
    vertex 47.10984362570333 5.241614565569022 60.0
  endloop
endfacet
facet normal -0.0 -0.0 1.0
  outer loop
    vertex 47.10984362570333 5.241614565569022 60.0
    vertex 0.0 0.0 60.0
    vertex 94.99999999999999 0.0 60.0
  endloop
endfacet
facet normal -0.0 -0.0 1.0
  outer loop
    vertex 47.10984362570333 5.241614565569022 60.0
    vertex 94.99999999999999 0.0 60.0
    vertex 51.91022528824059 5.77086667856319 60.0
  endloop
endfacet
facet normal -0.0 -0.0 1.0
  outer loop
    vertex 51.91022528824059 5.77086667856319 60.0
    vertex 94.99999999999999 0.0 60.0
    vertex 56.410057385626125 7.5245151611478605 60.0
  endloop
endfacet
facet normal -0.0 -0.0 1.0
  outer loop
    vertex 56.410057385626125 7.5245151611478605 60.0
    vertex 94.99999999999999 0.0 60.0
    vertex 60.30268379674729 10.383051767276033 60.0
  endloop
endfacet
facet normal -0.0 -0.0 1.0
  outer loop
    vertex 60.30268379674729 10.383051767276033 60.0
    vertex 94.99999999999999 0.0 60.0
    vertex 63.32282846455546 14.151671951195176 60.0
  endloop
endfacet
facet normal -0.0 -0.0 1.0
  outer loop
    vertex 63.32282846455546 14.151671951195176 60.0
    vertex 94.99999999999999 0.0 60.0
    vertex 65.26467352096455 18.5735504753105 60.0
  endloop
endfacet
facet normal -0.0 -0.0 1.0
  outer loop
    vertex 65.26467352096455 18.5735504753105 60.0
    vertex 94.99999999999999 0.0 60.0
    vertex 65.99588543443096 23.34734362570333 60.0
  endloop
endfacet
facet normal -0.0 -0.0 1.0
  outer loop
    vertex 0.0 0.0 60.0
    vertex 31.677171535444526 33.323328048804825 60.0
    vertex 47.49999999999999 63.29999999999998 60.0
  endloop
endfacet
facet normal -0.0 -0.0 1.0
  outer loop
    vertex 31.677171535444526 33.323328048804825 60.0
    vertex 0.0 0.0 60.0
    vertex 29.735326479035443 28.901449524689486 60.0
  endloop
endfacet
facet normal -0.0 -0.0 1.0
  outer loop
    vertex 29.735326479035443 28.901449524689486 60.0
    vertex 0.0 0.0 60.0
    vertex 29.004114565569022 24.12765637429666 60.0
  endloop
endfacet
facet normal -0.0 -0.0 1.0
  outer loop
    vertex 47.49999999999999 63.29999999999998 60.0
    vertex 31.677171535444526 33.323328048804825 60.0
    vertex 34.69731620325269 37.09194823272395 60.0
  endloop
endfacet
facet normal -0.0 -0.0 1.0
  outer loop
    vertex 47.49999999999999 63.29999999999998 60.0
    vertex 34.69731620325269 37.09194823272395 60.0
    vertex 38.58994261437385 39.95048483885212 60.0
  endloop
endfacet
facet normal -0.0 -0.0 1.0
  outer loop
    vertex 47.49999999999999 63.29999999999998 60.0
    vertex 38.58994261437385 39.95048483885212 60.0
    vertex 43.0897747117594 41.70413332143679 60.0
  endloop
endfacet
facet normal -0.0 -0.0 1.0
  outer loop
    vertex 47.49999999999999 63.29999999999998 60.0
    vertex 43.0897747117594 41.70413332143679 60.0
    vertex 47.89015637429665 42.233385434430964 60.0
  endloop
endfacet
facet normal -0.0 -0.0 1.0
  outer loop
    vertex 47.49999999999999 63.29999999999998 60.0
    vertex 47.89015637429665 42.233385434430964 60.0
    vertex 52.663949524689485 41.50217352096455 60.0
  endloop
endfacet
facet normal -0.0 -0.0 1.0
  outer loop
    vertex 47.49999999999999 63.29999999999998 60.0
    vertex 52.663949524689485 41.50217352096455 60.0
    vertex 57.08582804880481 39.56032846455547 60.0
  endloop
endfacet
facet normal -0.0 -0.0 1.0
  outer loop
    vertex 47.49999999999999 63.29999999999998 60.0
    vertex 57.08582804880481 39.56032846455547 60.0
    vertex 60.85444823272395 36.54018379674729 60.0
  endloop
endfacet
facet normal -0.0 -0.0 1.0
  outer loop
    vertex 47.49999999999999 63.29999999999998 60.0
    vertex 60.85444823272395 36.54018379674729 60.0
    vertex 94.99999999999999 0.0 60.0
  endloop
endfacet
facet normal -0.0 -0.0 1.0
  outer loop
    vertex 94.99999999999999 0.0 60.0
    vertex 60.85444823272395 36.54018379674729 60.0
    vertex 63.71298483885212 32.64755738562614 60.0
  endloop
endfacet
facet normal -0.0 -0.0 1.0
  outer loop
    vertex 94.99999999999999 0.0 60.0
    vertex 63.71298483885212 32.64755738562614 60.0
    vertex 65.46663332143679 28.1477252882406 60.0
  endloop
endfacet
facet normal -0.0 -0.0 1.0
  outer loop
    vertex 94.99999999999999 0.0 60.0
    vertex 65.46663332143679 28.1477252882406 60.0
    vertex 65.99588543443096 23.34734362570333 60.0
  endloop
endfacet
facet normal 0.7998483444358055 0.6002021541974845 0.0
  outer loop
    vertex 47.49999999999999 63.29999999999998 0.0
    vertex 94.99999999999999 0.0 60.0
    vertex 94.99999999999999 0.0 0.0
  endloop
endfacet
facet normal 0.7998483444358055 0.6002021541974845 0.0
  outer loop
    vertex 94.99999999999999 0.0 60.0
    vertex 47.49999999999999 63.29999999999998 0.0
    vertex 47.49999999999999 63.29999999999998 60.0
  endloop
endfacet
facet normal -0.0 -1.0 -0.0
  outer loop
    vertex 94.99999999999999 0.0 60.0
    vertex 0.0 0.0 0.0
    vertex 94.99999999999999 0.0 0.0
  endloop
endfacet
facet normal -0.0 -1.0 -0.0
  outer loop
    vertex 0.0 0.0 0.0
    vertex 94.99999999999999 0.0 60.0
    vertex 0.0 0.0 60.0
  endloop
endfacet
facet normal -0.7998483444358055 0.6002021541974845 0.0
  outer loop
    vertex 47.49999999999999 63.29999999999998 60.0
    vertex 0.0 0.0 0.0
    vertex 0.0 0.0 60.0
  endloop
endfacet
facet normal -0.7998483444358055 0.6002021541974845 0.0
  outer loop
    vertex 0.0 0.0 0.0
    vertex 47.49999999999999 63.29999999999998 60.0
    vertex 47.49999999999999 63.29999999999998 0.0
  endloop
endfacet
facet normal 0.0 0.0 1.0
  outer loop
    vertex 29.53336667856319 19.327274711759397 10.000000000000004
    vertex 29.735326479035443 28.901449524689486 10.000000000000004
    vertex 29.004114565569022 24.12765637429666 10.000000000000004
  endloop
endfacet
facet normal 0.0 0.0 1.0
  outer loop
    vertex 29.735326479035443 28.901449524689486 10.000000000000004
    vertex 29.53336667856319 19.327274711759397 10.000000000000004
    vertex 31.28701516114786 14.827442614373851 10.000000000000004
  endloop
endfacet
facet normal 0.0 0.0 1.0
  outer loop
    vertex 29.735326479035443 28.901449524689486 10.000000000000004
    vertex 31.28701516114786 14.827442614373851 10.000000000000004
    vertex 31.677171535444526 33.323328048804825 10.000000000000004
  endloop
endfacet
facet normal 0.0 0.0 1.0
  outer loop
    vertex 31.677171535444526 33.323328048804825 10.000000000000004
    vertex 31.28701516114786 14.827442614373851 10.000000000000004
    vertex 34.14555176727603 10.934816203252693 10.000000000000004
  endloop
endfacet
facet normal 0.0 0.0 1.0
  outer loop
    vertex 31.677171535444526 33.323328048804825 10.000000000000004
    vertex 34.14555176727603 10.934816203252693 10.000000000000004
    vertex 34.69731620325269 37.09194823272395 10.000000000000004
  endloop
endfacet
facet normal 0.0 0.0 1.0
  outer loop
    vertex 34.69731620325269 37.09194823272395 10.000000000000004
    vertex 34.14555176727603 10.934816203252693 10.000000000000004
    vertex 37.914171951195165 7.914671535444526 10.000000000000004
  endloop
endfacet
facet normal 0.0 0.0 1.0
  outer loop
    vertex 34.69731620325269 37.09194823272395 10.000000000000004
    vertex 37.914171951195165 7.914671535444526 10.000000000000004
    vertex 38.58994261437385 39.95048483885212 10.000000000000004
  endloop
endfacet
facet normal 0.0 0.0 1.0
  outer loop
    vertex 38.58994261437385 39.95048483885212 10.000000000000004
    vertex 37.914171951195165 7.914671535444526 10.000000000000004
    vertex 42.336050475310486 5.972826479035443 10.000000000000004
  endloop
endfacet
facet normal 0.0 0.0 1.0
  outer loop
    vertex 38.58994261437385 39.95048483885212 10.000000000000004
    vertex 42.336050475310486 5.972826479035443 10.000000000000004
    vertex 43.0897747117594 41.70413332143679 10.000000000000004
  endloop
endfacet
facet normal 0.0 0.0 1.0
  outer loop
    vertex 43.0897747117594 41.70413332143679 10.000000000000004
    vertex 42.336050475310486 5.972826479035443 10.000000000000004
    vertex 47.10984362570333 5.241614565569022 10.000000000000004
  endloop
endfacet
facet normal 0.0 0.0 1.0
  outer loop
    vertex 43.0897747117594 41.70413332143679 10.000000000000004
    vertex 47.10984362570333 5.241614565569022 10.000000000000004
    vertex 47.89015637429665 42.233385434430964 10.000000000000004
  endloop
endfacet
facet normal 0.0 0.0 1.0
  outer loop
    vertex 47.89015637429665 42.233385434430964 10.000000000000004
    vertex 47.10984362570333 5.241614565569022 10.000000000000004
    vertex 51.91022528824059 5.77086667856319 10.000000000000004
  endloop
endfacet
facet normal 0.0 0.0 1.0
  outer loop
    vertex 47.89015637429665 42.233385434430964 10.000000000000004
    vertex 51.91022528824059 5.77086667856319 10.000000000000004
    vertex 52.663949524689485 41.50217352096455 10.000000000000004
  endloop
endfacet
facet normal 0.0 0.0 1.0
  outer loop
    vertex 52.663949524689485 41.50217352096455 10.000000000000004
    vertex 51.91022528824059 5.77086667856319 10.000000000000004
    vertex 56.410057385626125 7.5245151611478605 10.000000000000004
  endloop
endfacet
facet normal 0.0 0.0 1.0
  outer loop
    vertex 52.663949524689485 41.50217352096455 10.000000000000004
    vertex 56.410057385626125 7.5245151611478605 10.000000000000004
    vertex 57.08582804880481 39.56032846455547 10.000000000000004
  endloop
endfacet
facet normal 0.0 0.0 1.0
  outer loop
    vertex 57.08582804880481 39.56032846455547 10.000000000000004
    vertex 56.410057385626125 7.5245151611478605 10.000000000000004
    vertex 60.30268379674729 10.383051767276033 10.000000000000004
  endloop
endfacet
facet normal 0.0 0.0 1.0
  outer loop
    vertex 57.08582804880481 39.56032846455547 10.000000000000004
    vertex 60.30268379674729 10.383051767276033 10.000000000000004
    vertex 60.85444823272395 36.54018379674729 10.000000000000004
  endloop
endfacet
facet normal 0.0 0.0 1.0
  outer loop
    vertex 60.85444823272395 36.54018379674729 10.000000000000004
    vertex 60.30268379674729 10.383051767276033 10.000000000000004
    vertex 63.32282846455546 14.151671951195176 10.000000000000004
  endloop
endfacet
facet normal 0.0 0.0 1.0
  outer loop
    vertex 60.85444823272395 36.54018379674729 10.000000000000004
    vertex 63.32282846455546 14.151671951195176 10.000000000000004
    vertex 63.71298483885212 32.64755738562614 10.000000000000004
  endloop
endfacet
facet normal 0.0 0.0 1.0
  outer loop
    vertex 63.71298483885212 32.64755738562614 10.000000000000004
    vertex 63.32282846455546 14.151671951195176 10.000000000000004
    vertex 65.26467352096455 18.5735504753105 10.000000000000004
  endloop
endfacet
facet normal 0.0 0.0 1.0
  outer loop
    vertex 63.71298483885212 32.64755738562614 10.000000000000004
    vertex 65.26467352096455 18.5735504753105 10.000000000000004
    vertex 65.46663332143679 28.1477252882406 10.000000000000004
  endloop
endfacet
facet normal 0.0 0.0 1.0
  outer loop
    vertex 65.46663332143679 28.1477252882406 10.000000000000004
    vertex 65.26467352096455 18.5735504753105 10.000000000000004
    vertex 65.99588543443096 23.34734362570333 10.000000000000004
  endloop
endfacet
facet normal 0.7803383967078975 -0.6253574870610793 -0.0
  outer loop
    vertex 34.69731620325269 37.09194823272395 10.000000000000004
    vertex 31.677171535444526 33.323328048804825 60.0
    vertex 31.677171535444526 33.323328048804825 10.000000000000004
  endloop
endfacet
facet normal 0.7803383967078975 -0.6253574870610793 -0.0
  outer loop
    vertex 31.677171535444526 33.323328048804825 60.0
    vertex 34.69731620325269 37.09194823272395 10.000000000000004
    vertex 34.69731620325269 37.09194823272395 60.0
  endloop
endfacet
facet normal 0.9156034382740242 -0.40208250872275614 -0.0
  outer loop
    vertex 31.677171535444526 33.323328048804825 10.000000000000004
    vertex 29.735326479035443 28.901449524689486 60.0
    vertex 29.735326479035443 28.901449524689486 10.000000000000004
  endloop
endfacet
facet normal 0.9156034382740242 -0.40208250872275614 -0.0
  outer loop
    vertex 29.735326479035443 28.901449524689486 60.0
    vertex 31.677171535444526 33.323328048804825 10.000000000000004
    vertex 31.677171535444526 33.323328048804825 60.0
  endloop
endfacet
facet normal 0.9884716186279981 -0.15140627188774444 -0.0
  outer loop
    vertex 29.735326479035443 28.901449524689486 10.000000000000004
    vertex 29.004114565569022 24.12765637429666 60.0
    vertex 29.004114565569022 24.12765637429666 10.000000000000004
  endloop
endfacet
facet normal 0.9884716186279981 -0.15140627188774444 -0.0
  outer loop
    vertex 29.004114565569022 24.12765637429666 60.0
    vertex 29.735326479035443 28.901449524689486 10.000000000000004
    vertex 29.735326479035443 28.901449524689486 60.0
  endloop
endfacet
facet normal 0.9939770916990603 0.10958805216572558 0.0
  outer loop
    vertex 29.004114565569022 24.12765637429666 10.000000000000004
    vertex 29.53336667856319 19.327274711759397 60.0
    vertex 29.53336667856319 19.327274711759397 10.000000000000004
  endloop
endfacet
facet normal 0.9939770916990603 0.10958805216572558 0.0
  outer loop
    vertex 29.53336667856319 19.327274711759397 60.0
    vertex 29.004114565569022 24.12765637429666 10.000000000000004
    vertex 29.004114565569022 24.12765637429666 60.0
  endloop
endfacet
facet normal 0.9317446685956415 0.3631141315669195 0.0
  outer loop
    vertex 29.53336667856319 19.327274711759397 10.000000000000004
    vertex 31.28701516114786 14.827442614373851 60.0
    vertex 31.28701516114786 14.827442614373851 10.000000000000004
  endloop
endfacet
facet normal 0.9317446685956415 0.3631141315669195 0.0
  outer loop
    vertex 31.28701516114786 14.827442614373851 60.0
    vertex 29.53336667856319 19.327274711759397 10.000000000000004
    vertex 29.53336667856319 19.327274711759397 60.0
  endloop
endfacet
facet normal 0.8060153861082976 0.5918945829763033 0.0
  outer loop
    vertex 31.28701516114786 14.827442614373851 10.000000000000004
    vertex 34.14555176727603 10.934816203252693 60.0
    vertex 34.14555176727603 10.934816203252693 10.000000000000004
  endloop
endfacet
facet normal 0.8060153861082976 0.5918945829763033 0.0
  outer loop
    vertex 34.14555176727603 10.934816203252693 60.0
    vertex 31.28701516114786 14.827442614373851 10.000000000000004
    vertex 31.28701516114786 14.827442614373851 60.0
  endloop
endfacet
facet normal 0.6253574870610793 0.7803383967078975 0.0
  outer loop
    vertex 34.14555176727603 10.934816203252693 60.0
    vertex 37.914171951195165 7.914671535444526 10.000000000000004
    vertex 34.14555176727603 10.934816203252693 10.000000000000004
  endloop
endfacet
facet normal 0.6253574870610793 0.7803383967078975 0.0
  outer loop
    vertex 37.914171951195165 7.914671535444526 10.000000000000004
    vertex 34.14555176727603 10.934816203252693 60.0
    vertex 37.914171951195165 7.914671535444526 60.0
  endloop
endfacet
facet normal 0.40208250872275697 0.9156034382740238 0.0
  outer loop
    vertex 37.914171951195165 7.914671535444526 60.0
    vertex 42.336050475310486 5.972826479035443 10.000000000000004
    vertex 37.914171951195165 7.914671535444526 10.000000000000004
  endloop
endfacet
facet normal 0.40208250872275697 0.9156034382740238 0.0
  outer loop
    vertex 42.336050475310486 5.972826479035443 10.000000000000004
    vertex 37.914171951195165 7.914671535444526 60.0
    vertex 42.336050475310486 5.972826479035443 60.0
  endloop
endfacet
facet normal 0.15140627188774408 0.9884716186279981 0.0
  outer loop
    vertex 42.336050475310486 5.972826479035443 60.0
    vertex 47.10984362570333 5.241614565569022 10.000000000000004
    vertex 42.336050475310486 5.972826479035443 10.000000000000004
  endloop
endfacet
facet normal 0.15140627188774408 0.9884716186279981 0.0
  outer loop
    vertex 47.10984362570333 5.241614565569022 10.000000000000004
    vertex 42.336050475310486 5.972826479035443 60.0
    vertex 47.10984362570333 5.241614565569022 60.0
  endloop
endfacet
facet normal -0.10958805216572558 0.9939770916990603 -0.0
  outer loop
    vertex 47.10984362570333 5.241614565569022 60.0
    vertex 51.91022528824059 5.77086667856319 10.000000000000004
    vertex 47.10984362570333 5.241614565569022 10.000000000000004
  endloop
endfacet
facet normal -0.10958805216572558 0.9939770916990603 -0.0
  outer loop
    vertex 51.91022528824059 5.77086667856319 10.000000000000004
    vertex 47.10984362570333 5.241614565569022 60.0
    vertex 51.91022528824059 5.77086667856319 60.0
  endloop
endfacet
facet normal -0.3631141315669199 0.9317446685956413 -0.0
  outer loop
    vertex 51.91022528824059 5.77086667856319 60.0
    vertex 56.410057385626125 7.5245151611478605 10.000000000000004
    vertex 51.91022528824059 5.77086667856319 10.000000000000004
  endloop
endfacet
facet normal -0.3631141315669199 0.9317446685956413 -0.0
  outer loop
    vertex 56.410057385626125 7.5245151611478605 10.000000000000004
    vertex 51.91022528824059 5.77086667856319 60.0
    vertex 56.410057385626125 7.5245151611478605 60.0
  endloop
endfacet
facet normal -0.5918945829763027 0.8060153861082981 -0.0
  outer loop
    vertex 56.410057385626125 7.5245151611478605 60.0
    vertex 60.30268379674729 10.383051767276033 10.000000000000004
    vertex 56.410057385626125 7.5245151611478605 10.000000000000004
  endloop
endfacet
facet normal -0.5918945829763027 0.8060153861082981 -0.0
  outer loop
    vertex 60.30268379674729 10.383051767276033 10.000000000000004
    vertex 56.410057385626125 7.5245151611478605 60.0
    vertex 60.30268379674729 10.383051767276033 60.0
  endloop
endfacet
facet normal -0.7803383967078984 0.6253574870610782 -0.0
  outer loop
    vertex 63.32282846455546 14.151671951195176 60.0
    vertex 60.30268379674729 10.383051767276033 10.000000000000004
    vertex 60.30268379674729 10.383051767276033 60.0
  endloop
endfacet
facet normal -0.7803383967078984 0.6253574870610782 -0.0
  outer loop
    vertex 60.30268379674729 10.383051767276033 10.000000000000004
    vertex 63.32282846455546 14.151671951195176 60.0
    vertex 63.32282846455546 14.151671951195176 10.000000000000004
  endloop
endfacet
facet normal -0.9156034382740235 0.402082508722758 -0.0
  outer loop
    vertex 65.26467352096455 18.5735504753105 60.0
    vertex 63.32282846455546 14.151671951195176 10.000000000000004
    vertex 63.32282846455546 14.151671951195176 60.0
  endloop
endfacet
facet normal -0.9156034382740235 0.402082508722758 -0.0
  outer loop
    vertex 63.32282846455546 14.151671951195176 10.000000000000004
    vertex 65.26467352096455 18.5735504753105 60.0
    vertex 65.26467352096455 18.5735504753105 10.000000000000004
  endloop
endfacet
facet normal -0.9884716186279986 0.15140627188774208 -0.0
  outer loop
    vertex 65.99588543443096 23.34734362570333 60.0
    vertex 65.26467352096455 18.5735504753105 10.000000000000004
    vertex 65.26467352096455 18.5735504753105 60.0
  endloop
endfacet
facet normal -0.9884716186279986 0.15140627188774208 -0.0
  outer loop
    vertex 65.26467352096455 18.5735504753105 10.000000000000004
    vertex 65.99588543443096 23.34734362570333 60.0
    vertex 65.99588543443096 23.34734362570333 10.000000000000004
  endloop
endfacet
facet normal -0.9939770916990606 -0.10958805216572423 -0.0
  outer loop
    vertex 65.46663332143679 28.1477252882406 60.0
    vertex 65.99588543443096 23.34734362570333 10.000000000000004
    vertex 65.99588543443096 23.34734362570333 60.0
  endloop
endfacet
facet normal -0.9939770916990606 -0.10958805216572423 -0.0
  outer loop
    vertex 65.99588543443096 23.34734362570333 10.000000000000004
    vertex 65.46663332143679 28.1477252882406 60.0
    vertex 65.46663332143679 28.1477252882406 10.000000000000004
  endloop
endfacet
facet normal -0.9317446685956413 -0.3631141315669199 -0.0
  outer loop
    vertex 63.71298483885212 32.64755738562614 60.0
    vertex 65.46663332143679 28.1477252882406 10.000000000000004
    vertex 65.46663332143679 28.1477252882406 60.0
  endloop
endfacet
facet normal -0.9317446685956413 -0.3631141315669199 -0.0
  outer loop
    vertex 65.46663332143679 28.1477252882406 10.000000000000004
    vertex 63.71298483885212 32.64755738562614 60.0
    vertex 63.71298483885212 32.64755738562614 10.000000000000004
  endloop
endfacet
facet normal -0.8060153861082973 -0.5918945829763038 -0.0
  outer loop
    vertex 60.85444823272395 36.54018379674729 60.0
    vertex 63.71298483885212 32.64755738562614 10.000000000000004
    vertex 63.71298483885212 32.64755738562614 60.0
  endloop
endfacet
facet normal -0.8060153861082973 -0.5918945829763038 -0.0
  outer loop
    vertex 63.71298483885212 32.64755738562614 10.000000000000004
    vertex 60.85444823272395 36.54018379674729 60.0
    vertex 60.85444823272395 36.54018379674729 10.000000000000004
  endloop
endfacet
facet normal -0.625357487061079 -0.7803383967078978 -0.0
  outer loop
    vertex 60.85444823272395 36.54018379674729 60.0
    vertex 57.08582804880481 39.56032846455547 10.000000000000004
    vertex 60.85444823272395 36.54018379674729 10.000000000000004
  endloop
endfacet
facet normal -0.625357487061079 -0.7803383967078978 -0.0
  outer loop
    vertex 57.08582804880481 39.56032846455547 10.000000000000004
    vertex 60.85444823272395 36.54018379674729 60.0
    vertex 57.08582804880481 39.56032846455547 60.0
  endloop
endfacet
facet normal -0.40208250872275697 -0.9156034382740238 -0.0
  outer loop
    vertex 57.08582804880481 39.56032846455547 60.0
    vertex 52.663949524689485 41.50217352096455 10.000000000000004
    vertex 57.08582804880481 39.56032846455547 10.000000000000004
  endloop
endfacet
facet normal -0.40208250872275697 -0.9156034382740238 -0.0
  outer loop
    vertex 52.663949524689485 41.50217352096455 10.000000000000004
    vertex 57.08582804880481 39.56032846455547 60.0
    vertex 52.663949524689485 41.50217352096455 60.0
  endloop
endfacet
facet normal -0.15140627188774314 -0.9884716186279983 -0.0
  outer loop
    vertex 52.663949524689485 41.50217352096455 60.0
    vertex 47.89015637429665 42.233385434430964 10.000000000000004
    vertex 52.663949524689485 41.50217352096455 10.000000000000004
  endloop
endfacet
facet normal -0.15140627188774314 -0.9884716186279983 -0.0
  outer loop
    vertex 47.89015637429665 42.233385434430964 10.000000000000004
    vertex 52.663949524689485 41.50217352096455 60.0
    vertex 47.89015637429665 42.233385434430964 60.0
  endloop
endfacet
facet normal 0.1095880521657257 -0.9939770916990603 -0.0
  outer loop
    vertex 47.89015637429665 42.233385434430964 60.0
    vertex 43.0897747117594 41.70413332143679 10.000000000000004
    vertex 47.89015637429665 42.233385434430964 10.000000000000004
  endloop
endfacet
facet normal 0.1095880521657257 -0.9939770916990603 -0.0
  outer loop
    vertex 43.0897747117594 41.70413332143679 10.000000000000004
    vertex 47.89015637429665 42.233385434430964 60.0
    vertex 43.0897747117594 41.70413332143679 60.0
  endloop
endfacet
facet normal 0.36311413156692013 -0.9317446685956413 -0.0
  outer loop
    vertex 43.0897747117594 41.70413332143679 60.0
    vertex 38.58994261437385 39.95048483885212 10.000000000000004
    vertex 43.0897747117594 41.70413332143679 10.000000000000004
  endloop
endfacet
facet normal 0.36311413156692013 -0.9317446685956413 -0.0
  outer loop
    vertex 38.58994261437385 39.95048483885212 10.000000000000004
    vertex 43.0897747117594 41.70413332143679 60.0
    vertex 38.58994261437385 39.95048483885212 60.0
  endloop
endfacet
facet normal 0.591894582976303 -0.8060153861082978 -0.0
  outer loop
    vertex 38.58994261437385 39.95048483885212 60.0
    vertex 34.69731620325269 37.09194823272395 10.000000000000004
    vertex 38.58994261437385 39.95048483885212 10.000000000000004
  endloop
endfacet
facet normal 0.591894582976303 -0.8060153861082978 -0.0
  outer loop
    vertex 34.69731620325269 37.09194823272395 10.000000000000004
    vertex 38.58994261437385 39.95048483885212 60.0
    vertex 34.69731620325269 37.09194823272395 60.0
  endloop
endfacet
endsolid arrow-button-cap-scale-x10
